<?xml version="1.0" encoding="UTF-8" standalone="no"?>
<!-- Created with Inkscape (http://www.inkscape.org/) -->

<svg
   version="1.1"
   id="svg2"
   width="512"
   height="512"
   viewBox="0 0 512 512"
   sodipodi:docname="facebook.svg"
   inkscape:version="1.2.1 (9c6d41e410, 2022-07-14)"
   xmlns:inkscape="http://www.inkscape.org/namespaces/inkscape"
   xmlns:sodipodi="http://sodipodi.sourceforge.net/DTD/sodipodi-0.dtd"
   xmlns="http://www.w3.org/2000/svg"
   xmlns:svg="http://www.w3.org/2000/svg">
  <defs
     id="defs6" />
  <sodipodi:namedview
     id="namedview4"
     pagecolor="#ffffff"
     bordercolor="#000000"
     borderopacity="0.25"
     inkscape:showpageshadow="2"
     inkscape:pageopacity="0.0"
     inkscape:pagecheckerboard="0"
     inkscape:deskcolor="#d1d1d1"
     showgrid="false"
     inkscape:zoom="0.4609375"
     inkscape:cx="250.57627"
     inkscape:cy="256"
     inkscape:window-width="1920"
     inkscape:window-height="1217"
     inkscape:window-x="-8"
     inkscape:window-y="-8"
     inkscape:window-maximized="1"
     inkscape:current-layer="g8" />
  <g
     inkscape:groupmode="layer"
     inkscape:label="Image"
     id="g8">
    <path
       style="fill:#fdc300;fill-opacity:1;stroke:#fdc300;stroke-width:2.68493;stroke-opacity:1"
       d="M 75.798869,506.90923 C 51.535987,502.00651 29.503181,484.41272 16.999469,459.95635 L 8.9357215,444.18427 V 252.26785 60.351433 L 15.775087,46.519622 C 23.834768,30.219847 39.51793,15.133178 56.74981,7.1033139 69.017802,1.3865612 70.598805,1.3424064 263.01568,1.3424064 H 456.9188 l 12.03536,6.299848 c 16.89437,8.8432756 29.0235,21.1118716 36.40748,36.8261656 l 6.33267,13.47687 0.0268,191.94439 c 0.0268,189.6542 -0.0423,192.12861 -5.70611,207.3846 -6.5648,17.68281 -24.38956,37.32842 -41.05694,45.25104 -7.99453,3.8001 -18.93217,5.39833 -43.46104,6.3506 l -32.7786,1.27257 V 407.36032 304.57215 l 19.39033,-0.0297 c 10.66465,-0.0161 23.79588,-0.76384 29.18048,-1.66122 11.35934,-1.89306 11.63768,-2.75084 14.53815,-44.80433 l 1.81254,-26.27993 h -31.12348 -31.12349 l 0.041,-24.93223 c 0.0214,-13.71272 0.94966,-26.37249 2.06032,-28.13281 3.76575,-5.96844 16.89573,-8.9286 39.60349,-8.9286 h 22.63483 l -0.74415,-37.06145 -0.7441,-37.06141 -33.43158,-0.782675 C 364.09145,93.569869 335.408,102.176 317.52658,125.88757 c -11.11655,14.74104 -14.39296,31.18492 -14.39296,72.23645 v 33.44614 l -20.72756,0.78722 -20.72758,0.78723 v 35.03987 35.03989 l 20.72758,0.7872 20.72756,0.78726 V 407.1097 509.42059 L 194.1467,509.11062 C 134.2039,508.94014 80.947403,507.94949 75.798929,506.90915 Z"
       id="path862" />
  </g>
</svg>
