<?xml version="1.0" encoding="UTF-8" standalone="no"?>
<!-- Created with Inkscape (http://www.inkscape.org/) -->

<svg
   version="1.1"
   id="svg2"
   width="512"
   height="512"
   viewBox="0 0 512 512"
   sodipodi:docname="facebook.svg"
   inkscape:version="1.2.1 (9c6d41e410, 2022-07-14)"
   xmlns:inkscape="http://www.inkscape.org/namespaces/inkscape"
   xmlns:sodipodi="http://sodipodi.sourceforge.net/DTD/sodipodi-0.dtd"
   xmlns="http://www.w3.org/2000/svg"
   xmlns:svg="http://www.w3.org/2000/svg">
  <defs
     id="defs6" />
  <sodipodi:namedview
     id="namedview4"
     pagecolor="#ffffff"
     bordercolor="#000000"
     borderopacity="0.25"
     inkscape:showpageshadow="2"
     inkscape:pageopacity="0.0"
     inkscape:pagecheckerboard="0"
     inkscape:deskcolor="#d1d1d1"
     showgrid="false"
     inkscape:zoom="0.4609375"
     inkscape:cx="247.32203"
     inkscape:cy="256"
     inkscape:window-width="1920"
     inkscape:window-height="1217"
     inkscape:window-x="-8"
     inkscape:window-y="-8"
     inkscape:window-maximized="1"
     inkscape:current-layer="g8" />
  <g
     inkscape:groupmode="layer"
     inkscape:label="Image"
     id="g8">
    <path
       style="fill:#fdc300;fill-opacity:1;stroke:#fdc300;stroke-width:2.16949;stroke-opacity:1"
       d="M 121.49153,464.41924 C 101.81024,460.47306 83.937918,446.31193 73.795298,426.62715 l -6.54106,-12.69486 V 259.45991 104.98754 l 5.54788,-11.133143 c 6.53776,-13.11959 19.25945,-25.26276 33.237412,-31.72595 9.95141,-4.60138 11.23387,-4.63692 167.31641,-4.63692 h 157.28814 l 9.76271,5.07071 c 13.70418,7.1179 23.54295,16.99282 29.53261,29.64116 l 5.13686,10.847453 0.0217,154.49489 c 0.0217,152.65153 -0.0343,154.64316 -4.62861,166.92262 -5.32517,14.23279 -19.78405,30.04542 -33.30411,36.42229 -6.48491,3.05868 -15.35718,4.34508 -35.25423,5.11156 l -26.58897,1.02428 v -82.73358 -82.73358 l 15.72882,-0.0239 c 8.65084,-0.013 19.30248,-0.61481 23.6703,-1.3371 9.21433,-1.52372 9.44011,-2.21414 11.79288,-36.06274 l 1.47028,-21.15256 h -25.24639 -25.2464 l 0.0332,-20.0678 c 0.0174,-11.03729 0.77034,-21.22706 1.67127,-22.64393 3.05466,-4.80397 13.70528,-7.18658 32.12511,-7.18658 h 18.36067 l -0.6036,-29.83051 -0.60359,-29.8305 -27.11865,-0.62997 c -46.01055,-1.06884 -69.27766,5.85818 -83.78251,24.94348 -9.0174,11.86498 -11.67512,25.10056 -11.67512,58.14269 v 26.9206 l -16.81355,0.63363 -16.81356,0.63363 v 28.20339 28.20339 l 16.81356,0.63362 16.81355,0.63365 v 82.34941 82.34942 l -88.40678,-0.24949 c -48.62372,-0.13722 -91.82372,-0.93459 -96,-1.77195 z"
       id="path862" />
  </g>
</svg>
