<?xml version="1.0" encoding="UTF-8" standalone="no"?>
<!-- Created with Inkscape (http://www.inkscape.org/) -->

<svg
   width="211.18668mm"
   height="259.89633mm"
   viewBox="0 0 211.18668 259.89633"
   version="1.1"
   id="svg15998"
   inkscape:version="1.2.1 (9c6d41e410, 2022-07-14)"
   sodipodi:docname="logo-seda.svg"
   xmlns:inkscape="http://www.inkscape.org/namespaces/inkscape"
   xmlns:sodipodi="http://sodipodi.sourceforge.net/DTD/sodipodi-0.dtd"
   xmlns="http://www.w3.org/2000/svg"
   xmlns:svg="http://www.w3.org/2000/svg">
  <sodipodi:namedview
     id="namedview16000"
     pagecolor="#ffffff"
     bordercolor="#000000"
     borderopacity="0.25"
     inkscape:showpageshadow="2"
     inkscape:pageopacity="0.0"
     inkscape:pagecheckerboard="0"
     inkscape:deskcolor="#d1d1d1"
     inkscape:document-units="mm"
     showgrid="false"
     inkscape:zoom="0.4204826"
     inkscape:cx="403.10823"
     inkscape:cy="554.12518"
     inkscape:window-width="1920"
     inkscape:window-height="1217"
     inkscape:window-x="-8"
     inkscape:window-y="-8"
     inkscape:window-maximized="1"
     inkscape:current-layer="layer1" />
  <defs
     id="defs15995" />
  <g
     inkscape:label="Vrstva 1"
     inkscape:groupmode="layer"
     id="layer1"
     transform="translate(-0.11857176,-2.1916678)">
    <path
       d="M 209.62312,198.53242 H 0.13987135 V 2.1916678 H 209.62312 Z"
       style="fill:#9c9a9b;fill-opacity:1;fill-rule:nonzero;stroke:none;stroke-width:2.06077"
       id="path478" />
    <path
       d="m 5.4294596,222.8745 c 0,0.59653 0.042237,1.14718 0.1236943,1.64595 0.085078,0.49479 0.2383376,0.92772 0.4597804,1.28883 0.2256666,0.3711 0.5297734,0.65439 0.9195611,0.86187 0.3897877,0.2135 0.8791342,0.31919 1.4666516,0.31919 0.6108685,0 1.1089641,-0.10575 1.4857186,-0.31919 0.3747034,-0.20748 0.6769394,-0.49077 0.9004334,-0.86187 0.223253,-0.3611 0.376514,-0.79405 0.459781,-1.28883 0.08085,-0.49874 0.123695,-1.04942 0.123695,-1.64595 v -16.50936 h 5.112915 v 16.52134 c 0,1.50429 -0.223252,2.75122 -0.672595,3.73679 -0.448919,0.98359 -1.049409,1.76167 -1.809375,2.33825 -0.755621,0.57658 -1.617739,0.96363 -2.586235,1.15715 -0.970668,0.20348 -1.9732549,0.30528 -3.0140966,0.30528 -1.0409022,0 -2.045601,-0.0898 -3.0141571,-0.26936 -0.9684957,-0.17554 -1.8306144,-0.53868 -2.586235,-1.07935 -0.7577929,-0.53867 -1.3580425,-1.30878 -1.80931456,-2.30633 -0.44891967,-0.99355 -0.67265553,-2.28836 -0.67265553,-3.88243 V 206.36514 H 5.4299423 Z"
       style="fill:#9c9a9b;fill-opacity:1;fill-rule:nonzero;stroke:none;stroke-width:2.06077"
       id="path480" />
    <path
       d="m 31.847713,222.58721 h 0.06396 v -16.22207 h 4.685054 v 23.6837 h -5.804701 l -6.232621,-16.58717 h -0.06999 v 16.58717 h -4.682943 v -23.6837 h 5.877105 z"
       style="fill:#9c9a9b;fill-opacity:1;fill-rule:nonzero;stroke:none;stroke-width:2.06077"
       id="path482" />
    <path
       d="m 40.230139,206.36514 h 5.112977 v 23.6837 h -5.112977 z"
       style="fill:#9c9a9b;fill-opacity:1;fill-rule:nonzero;stroke:none;stroke-width:2.06077"
       id="path484" />
    <path
       d="M 63.911009,210.29346 H 58.39147 v 19.75538 h -5.115028 v -19.75538 h -5.52165 v -3.92832 h 16.156217 z"
       style="fill:#9c9a9b;fill-opacity:1;fill-rule:nonzero;stroke:none;stroke-width:2.06077"
       id="path486" />
    <path
       d="m 80.314072,210.29346 h -9.02956 v 5.56431 h 8.499544 v 3.92833 h -8.499544 v 6.33841 h 9.382903 v 3.92433 H 66.171597 v -23.6837 h 14.142475 z"
       style="fill:#9c9a9b;fill-opacity:1;fill-rule:nonzero;stroke:none;stroke-width:2.06077"
       id="path488" />
    <path
       d="m 90.769854,226.52751 c 0.89615,0 1.611344,-0.14562 2.154151,-0.43292 0.540635,-0.28927 0.970668,-0.76412 1.289919,-1.42249 0.317382,-0.66637 0.529774,-1.54022 0.634341,-2.62354 0.106193,-1.08334 0.159898,-2.42604 0.159898,-4.04006 0,-1.34868 -0.04828,-2.52977 -0.1424,-3.54528 -0.09171,-1.01749 -0.287212,-1.86342 -0.581061,-2.53775 -0.295659,-0.67036 -0.732209,-1.1811 -1.306935,-1.52225 -0.579251,-0.34317 -1.349534,-0.51476 -2.313806,-0.51476 H 88.50981 v 16.63905 z m 0.989796,-20.16237 c 1.771,0 3.199276,0.2693 4.287001,0.81001 1.085613,0.54269 1.930656,1.31476 2.535188,2.32227 0.600371,1.00553 1.008984,2.21855 1.221859,3.63706 0.210582,1.41452 0.317382,2.99263 0.317382,4.74233 0,2.07688 -0.133953,3.88842 -0.406684,5.42265 -0.27273,1.53621 -0.738606,2.80309 -1.398529,3.80064 -0.664087,0.99356 -1.549618,1.73373 -2.658581,2.22054 -1.111136,0.48681 -2.516062,0.7282 -4.216827,0.7282 h -8.043987 v -23.6837 z"
       style="fill:#9c9a9b;fill-opacity:1;fill-rule:nonzero;stroke:none;stroke-width:2.06077"
       id="path490" />
    <path
       d="m 123.04385,212.04716 c -0.10623,-0.46487 -0.27695,-0.88982 -0.51288,-1.27886 -0.23834,-0.38904 -0.53822,-0.70825 -0.90248,-0.96163 -0.36626,-0.25336 -0.8089,-0.38304 -1.32613,-0.38304 -1.22824,0 -2.11372,0.64043 -2.65653,1.92127 -0.54304,1.28284 -0.81523,3.40163 -0.81523,6.36433 0,1.41453 0.0483,2.69538 0.14059,3.84455 0.0935,1.15116 0.2661,2.12876 0.51107,2.93079 0.2492,0.80601 0.60037,1.42649 1.06003,1.85941 0.45796,0.42897 1.05363,0.64641 1.7795,0.64641 0.30833,0 0.64074,-0.0778 1.00681,-0.2334 0.36626,-0.15162 0.70458,-0.38705 1.02389,-0.69428 0.31739,-0.31122 0.58106,-0.70028 0.794,-1.1771 0.21058,-0.47087 0.31738,-1.02747 0.31738,-1.6679 v -2.41207 h -3.36322 v -3.52531 h 8.24625 v 12.76857 h -3.75271 v -2.1926 h -0.0682 c -0.61521,0.9297 -1.35171,1.59207 -2.21377,1.98311 -0.85783,0.38508 -1.89023,0.58457 -3.095,0.58457 -1.55813,0 -2.8247,-0.25739 -3.8017,-0.76811 -0.97917,-0.50678 -1.7476,-1.29084 -2.30102,-2.35421 -0.5533,-1.06338 -0.92384,-2.37216 -1.11542,-3.93033 -0.18705,-1.56016 -0.28299,-3.3717 -0.28299,-5.42464 0,-1.9911 0.13818,-3.7408 0.41091,-5.24111 0.27273,-1.50829 0.74071,-2.7632 1.40058,-3.77271 0.66626,-1.00154 1.539,-1.76167 2.62673,-2.27041 1.08772,-0.50678 2.44793,-0.76013 4.07629,-0.76013 2.78421,0 4.78938,0.64242 6.01974,1.94321 1.22392,1.29482 1.83913,3.14825 1.83913,5.56032 h -4.8852 c 0,-0.44292 -0.0483,-0.8958 -0.15989,-1.35866"
       style="fill:#9c9a9b;fill-opacity:1;fill-rule:nonzero;stroke:none;stroke-width:2.06077"
       id="path492" />
    <path
       d="m 142.61862,221.11484 -2.44365,-10.63783 h -0.07 l -2.44154,10.63783 z m 0.67048,-14.7497 6.69241,23.6837 h -5.30878 l -1.17075,-5.00767 h -6.72426 l -1.16864,5.00767 h -5.31089 l 6.69234,-23.6837 z"
       style="fill:#9c9a9b;fill-opacity:1;fill-rule:nonzero;stroke:none;stroke-width:2.06077"
       id="path494" />
    <path
       d="m 159.68794,206.36514 3.61013,16.71685 h 0.07 l 3.64416,-16.71685 h 7.53744 v 23.6837 h -4.68512 v -18.90546 h -0.0682 l -4.48709,18.90546 h -3.95284 l -4.48708,-18.90546 h -0.0706 v 18.90546 h -4.68294 v -23.6837 z"
       style="fill:#9c9a9b;fill-opacity:1;fill-rule:nonzero;stroke:none;stroke-width:2.06077"
       id="path496" />
    <path
       d="m 192.26001,210.29346 h -9.02744 v 5.56431 h 8.49526 v 3.92833 h -8.49526 v 6.33841 h 9.37868 v 3.92433 h -14.4916 v -23.6837 h 14.14036 z"
       style="fill:#9c9a9b;fill-opacity:1;fill-rule:nonzero;stroke:none;stroke-width:2.06077"
       id="path498" />
    <path
       d="m 199.559,223.33537 c 0,0.55666 0.0483,1.0594 0.14482,1.51227 0.0935,0.45091 0.27031,0.83794 0.53218,1.14519 0.25946,0.30725 0.61087,0.55264 1.04723,0.7282 0.44048,0.17956 0.98987,0.26931 1.65395,0.26931 0.78121,0 1.48578,-0.24143 2.11584,-0.71623 0.62582,-0.4768 0.94085,-1.20902 0.94085,-2.20257 0,-0.53071 -0.079,-0.98957 -0.2323,-1.37463 -0.15325,-0.38705 -0.40849,-0.73818 -0.76207,-1.04543 -0.3554,-0.30725 -0.82375,-0.59254 -1.40276,-0.84591 -0.57925,-0.25738 -1.29631,-0.51272 -2.14775,-0.78208 -1.13455,-0.35114 -2.11795,-0.73619 -2.94815,-1.15715 -0.83014,-0.42099 -1.51981,-0.91176 -2.07752,-1.47837 -0.5533,-0.56462 -0.96427,-1.21501 -1.22397,-1.95518 -0.25945,-0.74018 -0.38918,-1.59807 -0.38918,-2.57168 0,-2.34222 0.696,-4.08792 2.09242,-5.23709 1.39207,-1.14918 3.31,-1.72178 5.74086,-1.72178 1.13455,0 2.18396,0.11572 3.13973,0.34515 0.9557,0.23544 1.7859,0.6125 2.4819,1.13521 0.69607,0.51871 1.24099,1.1811 1.63271,1.9911 0.38737,0.81001 0.58106,1.77763 0.58106,2.90685 v 0.66236 h -4.88092 c 0,-1.12922 -0.2148,-1.99907 -0.63856,-2.60359 -0.42539,-0.6105 -1.13666,-0.91575 -2.12862,-0.91575 -0.56417,0 -1.04091,0.0778 -1.41767,0.2334 -0.38073,0.15762 -0.67898,0.35912 -0.90676,0.61648 -0.22326,0.24941 -0.37471,0.54468 -0.45737,0.87785 -0.0851,0.33118 -0.12551,0.66835 -0.12551,1.02746 0,0.72822 0.16594,1.34469 0.49599,1.83948 0.33187,0.4988 1.04301,0.95764 2.12645,1.37461 l 3.93795,1.59408 c 0.96849,0.39899 1.76038,0.814 2.37553,1.24294 0.61304,0.43292 1.10474,0.89779 1.47298,1.39258 0.36385,0.49874 0.61945,1.04741 0.75991,1.64395 0.14059,0.60052 0.213,1.2589 0.213,1.9911 0,2.49785 -0.77693,4.31737 -2.32443,5.45457 -1.54962,1.1392 -3.70805,1.71179 -6.47524,1.71179 -2.88854,0 -4.95333,-0.59255 -6.1943,-1.76965 -1.24093,-1.1771 -1.86465,-2.86095 -1.86465,-5.04957 v -0.96362 h 5.11291 z"
       style="fill:#9c9a9b;fill-opacity:1;fill-rule:nonzero;stroke:none;stroke-width:2.06077"
       id="path500" />
    <path
       d="m 5.3549413,253.93205 c 0.083268,1.11327 0.244975,2.01905 0.4917601,2.71533 0.2449748,0.69828 0.597956,1.20504 1.0557454,1.52424 0.4555568,0.31919 1.0600897,0.4828 1.811487,0.4828 0.7471132,0 1.3537582,-0.16361 1.8093152,-0.4828 0.455556,-0.31919 0.806728,-0.82596 1.055805,-1.52424 0.244976,-0.69628 0.408493,-1.60206 0.49176,-2.71533 0.08085,-1.11924 0.123695,-2.46991 0.123695,-4.05999 0,-1.59408 -0.04223,-2.93877 -0.123695,-4.04206 -0.08327,-1.10528 -0.246784,-2.00905 -0.49176,-2.7193 -0.249198,-0.70427 -0.600369,-1.219 -1.055805,-1.5422 -0.455557,-0.32123 -1.062202,-0.48083 -1.8093152,-0.48083 -0.7513973,0 -1.3559302,0.1596 -1.811487,0.48083 -0.457367,0.3232 -0.8110119,0.83793 -1.0557454,1.5422 -0.2467851,0.71025 -0.4084927,1.61402 -0.4917601,2.7193 -0.080853,1.10329 -0.1236942,2.44798 -0.1236942,4.04206 0,1.59008 0.042237,2.94075 0.1236942,4.05999 m -4.97027583,-9.02179 c 0.17679175,-1.51028 0.56416612,-2.81307 1.16646703,-3.89241 0.6003691,-1.08733 1.4665912,-1.93324 2.599027,-2.53975 1.1345476,-0.61249 2.6522457,-0.91176 4.5637743,-0.91176 1.9072442,0 3.4291662,0.29928 4.5594902,0.91176 1.134548,0.60651 2.00089,1.45242 2.601139,2.53975 0.60037,1.07934 0.989796,2.38213 1.168639,3.89241 0.174378,1.51628 0.26368,3.1722 0.26368,4.96579 0,1.81153 -0.0893,3.47145 -0.26368,4.97574 -0.178602,1.50829 -0.56839,2.79712 -1.168639,3.88445 -0.600369,1.07934 -1.466591,1.91329 -2.601139,2.48587 -1.130324,0.5726 -2.652246,0.86588 -4.5594902,0.86588 -1.9115286,0 -3.4292267,-0.29329 -4.5637743,-0.86588 -1.1324358,-0.57258 -1.9987786,-1.40653 -2.599027,-2.48587 -0.60218025,-1.08733 -0.98979594,-2.37616 -1.16646703,-3.88445 -0.1786028,-1.50429 -0.26609371,-3.16421 -0.26609371,-4.97574 0,-1.79359 0.0874966,-3.44951 0.26609371,-4.96579"
       style="fill:#9c9a9b;fill-opacity:1;fill-rule:nonzero;stroke:none;stroke-width:2.06077"
       id="path502" />
    <path
       d="m 34.440344,238.0292 v 3.92833 h -9.027447 v 5.5643 h 8.49526 v 3.92835 h -8.49526 v 10.26274 H 20.297808 V 238.0292 Z"
       style="fill:#9c9a9b;fill-opacity:1;fill-rule:nonzero;stroke:none;stroke-width:2.06077"
       id="path504" />
    <path
       d="m 57.227176,254.25127 h 0.06577 V 238.0292 h 4.685116 v 23.68372 h -5.804757 l -6.23256,-16.58719 h -0.07 v 16.58719 H 45.187743 V 238.0292 h 5.877106 z"
       style="fill:#9c9a9b;fill-opacity:1;fill-rule:nonzero;stroke:none;stroke-width:2.06077"
       id="path506" />
    <path
       d="m 76.367622,252.7789 -2.441483,-10.63782 h -0.07241 l -2.441483,10.63782 z m 0.672656,-14.7497 6.690228,23.68372 h -5.308775 l -1.168579,-5.00768 h -6.726433 l -1.168578,5.00768 h -5.308776 l 6.69023,-23.68372 z"
       style="fill:#9c9a9b;fill-opacity:1;fill-rule:nonzero;stroke:none;stroke-width:2.06077"
       id="path508" />
    <path
       d="M 98.562713,241.95753 H 93.03895 v 19.75539 h -5.112916 v -19.75539 h -5.521651 v -3.92833 h 16.15833 z"
       style="fill:#9c9a9b;fill-opacity:1;fill-rule:nonzero;stroke:none;stroke-width:2.06077"
       id="path510" />
    <path
       d="m 100.94464,238.0292 h 5.11292 v 23.68372 h -5.11292 z"
       style="fill:#9c9a9b;fill-opacity:1;fill-rule:nonzero;stroke:none;stroke-width:2.06077"
       id="path512" />
    <path
       d="m 114.45706,253.93205 c 0.0809,1.11327 0.24679,2.01905 0.49176,2.71533 0.24678,0.69828 0.59615,1.20504 1.0558,1.52424 0.45556,0.31919 1.05792,0.4828 1.81144,0.4828 0.74928,0 1.34952,-0.16361 1.80931,-0.4828 0.45796,-0.31919 0.8089,-0.82596 1.0558,-1.52424 0.24678,-0.69628 0.40849,-1.60206 0.49176,-2.71533 0.0809,-1.11924 0.12128,-2.46991 0.12128,-4.05999 0,-1.59408 -0.0422,-2.93877 -0.12128,-4.04206 -0.0832,-1.10528 -0.24498,-2.00905 -0.49176,-2.7193 -0.24678,-0.70427 -0.59795,-1.219 -1.0558,-1.5422 -0.45979,-0.32123 -1.06003,-0.48083 -1.80931,-0.48083 -0.75352,0 -1.35594,0.1596 -1.81144,0.48083 -0.45978,0.3232 -0.80889,0.83793 -1.0558,1.5422 -0.24497,0.71025 -0.4109,1.61402 -0.49176,2.7193 -0.0808,1.10329 -0.12369,2.44798 -0.12369,4.04206 0,1.59008 0.0423,2.94075 0.12369,4.05999 m -4.97034,-9.02179 c 0.17438,-1.51028 0.56417,-2.81307 1.16436,-3.89241 0.60218,-1.08733 1.46876,-1.93324 2.59903,-2.53975 1.13243,-0.61249 2.65441,-0.91176 4.56588,-0.91176 1.90724,0 3.42922,0.29928 4.55949,0.91176 1.13455,0.60651 2.00089,1.45242 2.6012,2.53975 0.60037,1.07934 0.9919,2.38213 1.16647,3.89241 0.1786,1.51628 0.2661,3.1722 0.2661,4.96579 0,1.81153 -0.0875,3.47145 -0.2661,4.97574 -0.17439,1.50829 -0.56598,2.79712 -1.16647,3.88445 -0.60037,1.07934 -1.46665,1.91329 -2.6012,2.48587 -1.13027,0.5726 -2.65225,0.86588 -4.55949,0.86588 -1.91147,0 -3.43345,-0.29329 -4.56588,-0.86588 -1.13027,-0.57258 -1.99661,-1.40653 -2.59903,-2.48587 -0.60037,-1.08733 -0.9898,-2.37616 -1.16436,-3.88445 -0.17679,-1.50429 -0.26609,-3.16421 -0.26609,-4.97574 0,-1.79359 0.0893,-3.44951 0.26609,-4.96579"
       style="fill:#9c9a9b;fill-opacity:1;fill-rule:nonzero;stroke:none;stroke-width:2.06077"
       id="path514" />
    <path
       d="m 141.43936,254.25127 h 0.0682 V 238.0292 h 4.68505 v 23.68372 h -5.80686 l -6.23049,-16.58719 h -0.0724 v 16.58719 h -4.68505 V 238.0292 h 5.88133 z"
       style="fill:#9c9a9b;fill-opacity:1;fill-rule:nonzero;stroke:none;stroke-width:2.06077"
       id="path516" />
    <path
       d="m 153.86194,254.99944 c 0,0.55666 0.0483,1.05939 0.14482,1.51227 0.096,0.4509 0.27273,0.83395 0.53218,1.14519 0.25946,0.30726 0.61093,0.55264 1.0473,0.7282 0.43867,0.17956 0.9898,0.26936 1.65394,0.26936 0.78121,0 1.48579,-0.24143 2.11373,-0.71623 0.62794,-0.4768 0.94297,-1.20902 0.94297,-2.20258 0,-0.52871 -0.0766,-0.98956 -0.2323,-1.37461 -0.15327,-0.38706 -0.40849,-0.7362 -0.76202,-1.04543 -0.35539,-0.30726 -0.82375,-0.59255 -1.40275,-0.84593 -0.58106,-0.25534 -1.29631,-0.51271 -2.14993,-0.78207 -1.13237,-0.35114 -2.11583,-0.73619 -2.94597,-1.15715 -0.82803,-0.42099 -1.51981,-0.91175 -2.07542,-1.47636 -0.55752,-0.56661 -0.96426,-1.21701 -1.22607,-1.95719 -0.25946,-0.74017 -0.3916,-1.59807 -0.3916,-2.57167 0,-2.34223 0.69818,-4.08793 2.09243,-5.2371 1.39634,-1.14917 3.30999,-1.72177 5.74513,-1.72177 1.13244,0 2.17968,0.11571 3.13545,0.34712 0.95787,0.2334 1.78801,0.6105 2.48408,1.13322 0.69607,0.51871 1.24099,1.18109 1.63053,1.9911 0.38978,0.81 0.58347,1.77762 0.58347,2.90285 v 0.66636 h -4.88302 c 0,-1.12922 -0.21059,-1.99908 -0.63645,-2.6036 -0.42781,-0.61049 -1.13673,-0.91574 -2.12863,-0.91574 -0.56598,0 -1.04091,0.0778 -1.41766,0.23543 -0.37892,0.15564 -0.68117,0.35714 -0.90466,0.61448 -0.22566,0.24941 -0.37651,0.54666 -0.45978,0.87785 -0.085,0.33118 -0.12791,0.67035 -0.12791,1.02747 0,0.7282 0.16834,1.34469 0.49779,1.83948 0.33187,0.49874 1.04091,0.95962 2.12863,1.3766 l 3.93582,1.59209 c 0.9685,0.39898 1.76033,0.81599 2.37337,1.24293 0.61732,0.43293 1.10691,0.8978 1.47516,1.39257 0.36384,0.49876 0.61726,1.04743 0.7599,1.64396 0.1424,0.59653 0.21299,1.25891 0.21299,1.9911 0,2.49785 -0.7748,4.31738 -2.32448,5.45458 -1.54744,1.13919 -3.71016,1.71179 -6.47735,1.71179 -2.88425,0 -4.95115,-0.59255 -6.19214,-1.76965 -1.24309,-1.1771 -1.86465,-2.86096 -1.86465,-5.04957 v -0.96363 h 5.11292 z"
       style="fill:#9c9a9b;fill-opacity:1;fill-rule:nonzero;stroke:none;stroke-width:2.06077"
       id="path518" />
    <path
       d="m 15.697892,161.29806 c -0.689671,-0.4509 -1.511303,-0.67833 -2.460671,-0.67833 -0.813123,0 -1.504907,0.14364 -2.081804,0.42896 -0.576838,0.28531 -1.051522,0.66636 -1.4261647,1.14717 -0.3722895,0.4828 -0.649244,1.03146 -0.8259155,1.64994 -0.1786024,0.61648 -0.2660935,1.2569 -0.2660935,1.92127 0,0.72621 0.087491,1.41053 0.2660935,2.05893 0.1767923,0.64841 0.4531433,1.21103 0.8259155,1.69184 0.3747027,0.4828 0.8514387,0.86388 1.4346717,1.14917 0.583475,0.28532 1.281473,0.42693 2.092424,0.42693 0.593732,0 1.123928,-0.0918 1.585821,-0.27531 0.464003,-0.18352 0.862118,-0.43891 1.198445,-0.76611 0.334277,-0.32518 0.597957,-0.71424 0.787601,-1.16713 0.191274,-0.4509 0.304107,-0.93769 0.342724,-1.4604 h 1.807203 c -0.178603,1.60205 -0.768413,2.84898 -1.768888,3.7408 -1.000415,0.8878 -2.369136,1.33071 -4.106106,1.33071 -1.051521,0 -1.96891,-0.16756 -2.756511,-0.50474 -0.7854882,-0.33915 -1.4389558,-0.80602 -1.958351,-1.40055 -0.5213258,-0.59056 -0.9131651,-1.29083 -1.1728627,-2.09684 -0.2618697,-0.81001 -0.3915978,-1.67389 -0.3915978,-2.5996 0,-0.92573 0.1405891,-1.79359 0.4193536,-2.60959 0.2811781,-0.81199 0.6896709,-1.51825 1.2303052,-2.12476 0.5388241,-0.60651 1.2111778,-1.08334 2.0157937,-1.43247 0.804615,-0.35115 1.726349,-0.52669 2.76719,-0.52669 0.708859,0 1.381514,0.0898 2.013683,0.26535 0.63434,0.17956 1.196274,0.43892 1.692257,0.78207 0.494174,0.34318 0.906769,0.7741 1.23459,1.28883 0.330052,0.51674 0.544858,1.11326 0.647132,1.7916 h -1.807203 c -0.202135,-0.90179 -0.649244,-1.58012 -1.338915,-2.03101"
       style="fill:#ffffff;fill-opacity:1;fill-rule:nonzero;stroke:none;stroke-width:2.06077"
       id="path520" />
    <path
       d="m 28.426994,160.917 h -7.79497 v -1.41851 h 9.923597 v 1.41851 l -8.420802,9.88168 H 30.7834 v 1.41851 H 19.987064 v -1.41851 z"
       style="fill:#ffffff;fill-opacity:1;fill-rule:nonzero;stroke:none;stroke-width:2.06077"
       id="path522" />
    <path
       d="m 42.06715,159.49849 v 1.41851 h -7.565079 v 4.05203 h 7.05208 v 1.4185 h -7.05208 v 4.41115 h 7.620409 v 1.41851 h -9.434009 v -12.7187 z"
       style="fill:#ffffff;fill-opacity:1;fill-rule:nonzero;stroke:none;stroke-width:2.06077"
       id="path524" />
    <path
       d="m 52.446303,161.29806 c -0.689671,-0.4509 -1.511363,-0.67833 -2.46067,-0.67833 -0.811013,0 -1.504967,0.14364 -2.081805,0.42896 -0.576838,0.28531 -1.051521,0.66636 -1.426164,1.14717 -0.37229,0.4828 -0.649244,1.03146 -0.825915,1.64994 -0.178603,0.61648 -0.266094,1.2569 -0.266094,1.92127 0,0.72621 0.08749,1.41053 0.266094,2.05893 0.176792,0.64841 0.453143,1.21103 0.825915,1.69184 0.374702,0.4828 0.851438,0.86388 1.434673,1.14917 0.583474,0.28532 1.279299,0.42693 2.092422,0.42693 0.596146,0 1.123929,-0.0918 1.585821,-0.27531 0.464005,-0.18352 0.862058,-0.43891 1.198386,-0.76611 0.336087,-0.32518 0.597956,-0.71424 0.787601,-1.16713 0.191273,-0.4509 0.30652,-0.93769 0.342723,-1.4604 h 1.807203 c -0.178602,1.60205 -0.768473,2.84898 -1.768888,3.7408 -1.000475,0.8878 -2.369137,1.33071 -4.106105,1.33071 -1.051522,0 -1.968971,-0.16756 -2.754399,-0.50474 -0.787601,-0.33915 -1.441068,-0.80602 -1.960463,-1.40055 -0.521327,-0.59056 -0.913166,-1.29083 -1.172863,-2.09684 -0.26187,-0.81001 -0.391598,-1.67389 -0.391598,-2.5996 0,-0.92573 0.140589,-1.79359 0.421766,-2.60959 0.278766,-0.81199 0.6875,-1.51825 1.228194,-2.12476 0.540634,-0.60651 1.21329,-1.08334 2.015794,-1.43247 0.804616,-0.35115 1.7284,-0.52669 2.767191,-0.52669 0.708859,0 1.381453,0.0898 2.015794,0.26535 0.632228,0.17956 1.196274,0.43892 1.690146,0.78207 0.49357,0.34318 0.906768,0.7741 1.236701,1.28883 0.327639,0.51674 0.543047,1.11326 0.64496,1.7916 h -1.805032 c -0.204547,-0.90179 -0.649244,-1.58012 -1.341026,-2.03101"
       style="fill:#ffffff;fill-opacity:1;fill-rule:nonzero;stroke:none;stroke-width:2.06077"
       id="path526" />
    <path
       d="m 59.898549,159.49849 v 5.47054 h 7.132994 v -5.47054 h 1.813598 v 12.7187 h -1.813598 v -5.82966 h -7.132994 v 5.82966 H 58.08495 v -12.7187 z"
       style="fill:#ffffff;fill-opacity:1;fill-rule:nonzero;stroke:none;stroke-width:2.06077"
       id="path528" />
    <path
       d="m 14.25254,183.08045 c 0.378926,-0.0579 0.710969,-0.17554 0.996191,-0.34713 0.282988,-0.17356 0.511068,-0.40498 0.681162,-0.69428 0.172569,-0.29329 0.257647,-0.67036 0.257647,-1.13521 0,-0.64043 -0.189464,-1.16513 -0.570201,-1.57013 -0.378927,-0.40301 -0.991967,-0.60452 -1.839122,-0.60452 H 9.3016926 v 4.44107 h 3.7548744 c 0.417543,0 0.817408,-0.03 1.196274,-0.0898 m -0.376513,-5.7698 c 1.292092,0 2.303186,0.29526 3.02906,0.88981 0.730098,0.59454 1.094061,1.40654 1.094061,2.44 0,0.77011 -0.18705,1.44643 -0.561753,2.02901 -0.372289,0.58056 -0.970668,0.97758 -1.794411,1.19305 v 0.0339 c 0.391597,0.0719 0.713082,0.19156 0.959988,0.35715 0.246784,0.16757 0.442885,0.36708 0.589508,0.59852 0.144813,0.23142 0.253422,0.48879 0.323416,0.77409 0.06818,0.28532 0.123694,0.58257 0.159897,0.89182 0.02413,0.30725 0.04223,0.62246 0.06034,0.94366 0.01207,0.32321 0.04223,0.63644 0.09594,0.94568 0.04828,0.30726 0.123694,0.60252 0.219029,0.88183 0.09353,0.27932 0.236528,0.5247 0.427802,0.74017 h -2.015802 c -0.127918,-0.13165 -0.212996,-0.31121 -0.257646,-0.53669 -0.04223,-0.22344 -0.07241,-0.4768 -0.08508,-0.75813 -0.01207,-0.27734 -0.02413,-0.57858 -0.0362,-0.89979 -0.01207,-0.32122 -0.04828,-0.63444 -0.112833,-0.94568 -0.04828,-0.30923 -0.114643,-0.60251 -0.191274,-0.88183 -0.07421,-0.28129 -0.196101,-0.5247 -0.359618,-0.73219 -0.164122,-0.20749 -0.378927,-0.37506 -0.64496,-0.49874 -0.266094,-0.12572 -0.619437,-0.18754 -1.062202,-0.18754 H 9.3073644 v 5.44061 H 7.4959377 v -12.7187 z"
       style="fill:#ffffff;fill-opacity:1;fill-rule:nonzero;stroke:none;stroke-width:2.06077"
       id="path530" />
    <path
       d="m 30.110744,177.31065 v 1.4185 h -7.56508 v 4.05204 h 7.05208 v 1.41851 h -7.05208 v 4.41113 h 7.622522 v 1.41851 h -9.43612 v -12.71869 z"
       style="fill:#ffffff;fill-opacity:1;fill-rule:nonzero;stroke:none;stroke-width:2.06077"
       id="path532" />
    <path
       d="m 37.724818,183.40366 c 1.025938,0.0119 1.777335,-0.18358 2.25202,-0.58856 0.474865,-0.40498 0.713082,-0.98756 0.713082,-1.74969 0,-0.76013 -0.238337,-1.33871 -0.713082,-1.73972 -0.474865,-0.39904 -1.226082,-0.59654 -2.25202,-0.59654 h -3.535664 v 4.67451 z m 0.608757,-6.09301 c 1.370834,0 2.409563,0.3292 3.114138,0.98756 0.702463,0.65839 1.055805,1.58212 1.055805,2.7672 0,1.18708 -0.353583,2.1128 -1.055805,2.77915 -0.704575,0.66437 -1.741192,0.98957 -3.112027,0.9776 h -4.146532 v 5.20718 h -1.813599 v -12.71869 z"
       style="fill:#ffffff;fill-opacity:1;fill-rule:nonzero;stroke:none;stroke-width:2.06077"
       id="path534" />
    <path
       d="m 54.064042,189.08965 c -0.925957,0.81201 -2.245683,1.21901 -3.957129,1.21901 -1.751812,0 -3.120534,-0.38904 -4.103933,-1.16714 -0.983461,-0.77608 -1.472988,-2.01503 -1.472988,-3.71086 v -8.12001 h 1.811427 v 8.12201 c 0,1.1392 0.323416,2.00506 0.970668,2.59362 0.64496,0.58655 1.577252,0.87983 2.794826,0.87983 1.151624,0 2.030697,-0.29329 2.631007,-0.87983 0.60218,-0.58856 0.904657,-1.45442 0.904657,-2.59362 v -8.12201 h 1.811427 v 8.12001 c 0,1.62401 -0.461591,2.847 -1.389962,3.65899"
       style="fill:#ffffff;fill-opacity:1;fill-rule:nonzero;stroke:none;stroke-width:2.06077"
       id="path536" />
    <path
       d="m 64.841189,188.61083 c 0.796108,0 1.419768,-0.20348 1.866818,-0.6085 0.44892,-0.403 0.672655,-0.96163 0.672655,-1.67787 0,-0.41697 -0.08085,-0.76212 -0.244975,-1.03545 -0.165931,-0.27332 -0.38315,-0.49078 -0.653528,-0.65239 -0.272126,-0.16158 -0.585285,-0.27333 -0.938688,-0.33915 -0.355394,-0.0658 -0.72159,-0.0978 -1.100517,-0.0978 h -4.11244 v 4.41114 z m -0.906769,-5.82964 c 1.023827,0 1.758208,-0.16961 2.207369,-0.50876 0.44892,-0.33915 0.674768,-0.84792 0.674768,-1.52824 0,-0.4509 -0.07663,-0.80801 -0.228081,-1.06937 -0.150846,-0.26337 -0.362032,-0.46487 -0.625772,-0.6085 -0.266093,-0.14167 -0.572614,-0.2334 -0.919561,-0.2753 -0.346947,-0.0419 -0.717366,-0.0619 -1.109024,-0.0619 h -3.603726 v 4.05203 z m -0.49357,-5.47054 c 0.291436,0 0.604533,0.004 0.940861,0.008 0.334275,0.006 0.66837,0.0238 0.996191,0.0538 0.330052,0.0277 0.638564,0.0738 0.923845,0.13369 0.282988,0.0598 0.527963,0.14765 0.730098,0.26733 0.442886,0.2494 0.821631,0.59254 1.132436,1.03345 0.308933,0.43891 0.464003,0.97958 0.464003,1.62001 0,0.67833 -0.174378,1.26289 -0.523738,1.75369 -0.349362,0.49478 -0.847216,0.85988 -1.494288,1.0973 v 0.0339 c 0.836535,0.16559 1.475099,0.52273 1.917865,1.07136 0.444695,0.54467 0.666259,1.20903 0.666259,1.99509 0,0.46086 -0.0893,0.91375 -0.266093,1.35267 -0.176792,0.43891 -0.440473,0.82796 -0.78754,1.16713 -0.349362,0.33716 -0.779093,0.61049 -1.292093,0.81798 -0.512878,0.20948 -1.10474,0.31325 -1.777396,0.31325 h -6.553984 v -12.71869 z"
       style="fill:#ffffff;fill-opacity:1;fill-rule:nonzero;stroke:none;stroke-width:2.06077"
       id="path538" />
    <path
       d="m 73.50039,177.31065 v 11.30018 h 7.186213 v 1.41851 h -8.99764 v -12.71869 z"
       style="fill:#ffffff;fill-opacity:1;fill-rule:nonzero;stroke:none;stroke-width:2.06077"
       id="path540" />
    <path
       d="m 84.288216,190.02934 h -1.813598 v -12.71869 h 1.813598 z"
       style="fill:#ffffff;fill-opacity:1;fill-rule:nonzero;stroke:none;stroke-width:2.06077"
       id="path542" />
    <path
       d="m 95.680576,179.11022 c -0.68967,-0.45288 -1.511362,-0.67833 -2.46073,-0.67833 -0.810952,0 -1.504907,0.14167 -2.081745,0.42895 -0.576837,0.28532 -1.051522,0.66637 -1.424052,1.14718 -0.374703,0.48083 -0.651356,1.03146 -0.828027,1.64794 -0.178603,0.61848 -0.266094,1.25891 -0.266094,1.92327 0,0.72422 0.08749,1.41053 0.266094,2.05694 0.176791,0.65039 0.453143,1.21301 0.828027,1.69383 0.372289,0.48082 0.849326,0.86387 1.43256,1.14917 0.583475,0.28531 1.281413,0.42698 2.092424,0.42698 0.596146,0 1.123928,-0.0918 1.58582,-0.27734 0.464005,-0.18153 0.862059,-0.43693 1.198386,-0.76411 0.336086,-0.32518 0.597957,-0.71624 0.789713,-1.16713 0.189464,-0.4509 0.30471,-0.93769 0.340913,-1.46241 h 1.807204 c -0.178603,1.60406 -0.768474,2.85099 -1.768889,3.7408 -1.000475,0.88981 -2.369137,1.33272 -4.103994,1.33272 -1.053633,0 -1.971082,-0.16961 -2.75651,-0.50678 -0.787601,-0.33916 -1.441129,-0.80403 -1.960464,-1.39856 -0.521326,-0.59253 -0.913165,-1.29082 -1.172862,-2.09884 -0.26187,-0.80801 -0.391598,-1.67188 -0.391598,-2.5976 0,-0.92572 0.140589,-1.79557 0.421767,-2.60958 0.278765,-0.81199 0.687499,-1.52025 1.228193,-2.12476 0.540634,-0.60651 1.21329,-1.08334 2.017906,-1.43248 0.802504,-0.35114 1.726288,-0.52668 2.765079,-0.52668 0.708798,0 1.381454,0.0898 2.013682,0.26534 0.63434,0.17957 1.198386,0.43892 1.692258,0.78208 0.49357,0.34113 0.906768,0.7721 1.236701,1.28882 0.327638,0.51674 0.543047,1.11327 0.64496,1.79161 h -1.805032 c -0.204547,-0.90379 -0.651355,-1.58012 -1.341026,-2.03101"
       style="fill:#ffffff;fill-opacity:1;fill-rule:nonzero;stroke:none;stroke-width:2.06077"
       id="path544" />
    <path
       d="m 209.62312,131.75079 c -2.77575,-0.22344 -8.20581,-0.0238 -13.52738,0.0197 -4.61905,0.0339 -11.93088,-0.69229 -14.02964,-2.50184 -0.50443,-0.34916 1.1707,-2.37416 1.06215,-2.76121 -0.24257,-0.81798 -11.19011,-7.90454 -16.45629,-10.95504 -3.43985,-1.96316 -10.67288,-4.73434 -15.43246,-7.09652 -4.75746,-2.36019 -11.58182,-5.86157 -13.88923,-7.65117 -2.30952,-1.793589 -2.61604,-1.871398 -4.97877,-2.356201 -2.36281,-0.484783 -2.12442,-2.034995 -4.3701,-3.421577 -2.2478,-1.376618 -2.04132,-5.063542 -1.68158,-7.190307 0.3578,-2.126766 3.41215,-4.596687 5.91331,-6.563838 2.49899,-1.973151 7.40965,-3.128309 10.25136,-4.935856 2.84382,-1.801568 8.9487,-5.893492 13.96798,-8.842236 5.01927,-2.942764 12.64396,-6.946904 15.23448,-7.928487 2.59692,-0.975603 7.10747,0.33915 8.32076,0.500786 1.20906,0.167567 4.89582,1.612028 6.41991,2.597606 1.51981,0.97959 2.0392,-0.2813 1.32402,-0.774094 -0.71738,-0.492814 -3.3164,-1.707795 -4.0763,-2.441989 -0.75997,-0.740183 -0.57504,-1.420504 1.17708,-1.169129 5.84518,1.159154 7.07978,1.095306 7.02016,0.187537 -0.0423,-0.574589 -1.97531,-1.14319 -4.36792,-1.558165 -2.40316,-0.407013 -4.0209,-0.347123 -4.04649,-1.578116 -0.0121,-1.228981 2.00518,-1.466385 3.96987,-1.550183 7.49062,-0.39503 7.06704,-1.949205 6.52206,-2.031004 -0.54908,-0.08178 -3.46108,-0.0062 -4.31681,0.235433 -0.85144,0.245387 -3.99539,0.159595 -4.35512,-0.41895 -0.13818,-0.893803 1.35805,-1.059392 4.47646,-2.773174 3.11414,-1.717774 -0.69818,-1.809549 -2.66503,-1.047426 -1.9732,0.762124 -8.8827,2.282384 -10.21094,1.897333 -1.324,-0.38106 0.60218,-4.586711 -0.76846,-5.360807 -1.36656,-0.760126 -0.99831,1.917278 -2.73099,4.596687 -1.7263,2.671422 -8.74012,7.260127 -13.33792,8.401324 -4.60632,1.147176 -12.44383,4.582715 -14.88115,6.118937 -2.44787,1.536221 -11.49233,3.840549 -13.63587,4.610648 -2.14136,0.766122 -8.15049,3.082418 -11.24332,3.47545 -3.08439,0.389036 -2.99068,-3.43554 -0.58951,-6.122933 2.40105,-2.677409 15.91354,-1.783601 14.85345,-3.309847 -1.06431,-1.532235 -8.49315,-3.974224 -13.09308,-5.043591 -3.8315,-0.897794 -10.05344,-6.254605 -17.10769,1.302795 -3.43767,3.676948 3.65272,8.999847 4.60631,10.147023 0.96005,1.147176 2.56072,4.582725 1.31762,5.737883 -1.23881,1.153156 -5.70466,2.842993 -8.68261,1.945208 -3.701658,-1.111261 -4.793607,-2.509822 -8.474023,-1.388586 -0.564167,0.173566 -1.375058,0.977597 -2.537301,1.137201 -4.838315,0.694293 -13.433677,1.354664 -15.145062,0.746163 -2.118007,-0.76412 -5.904801,-1.131212 -10.49621,-0.351138 -4.585014,0.776088 -16.324321,1.915292 -18.699854,0.197541 -3.701655,-2.69137 -6.683833,-3.581182 -9.150899,-4.738333 -3.616518,-1.69183 -2.926847,0.778081 -0.278765,2.643496 1.643324,1.155149 -0.289625,3.126296 -3.414262,4.151776 -1.762492,0.578576 -3.344089,0.744169 -3.344089,0.744169 -3.341916,-0.08385 -4.397722,1.813536 -2.903436,1.97913 1.496459,0.165593 3.431339,-0.165594 4.927738,-0.165594 1.494286,0 1.409149,0.165594 0,1.07137 -1.40909,0.905767 -5.085221,3.166207 -4.642456,3.994165 0.436248,0.821978 2.882135,-0.53466 4.555206,-1.193057 1.67307,-0.658388 1.660338,-0.790059 3.082219,-1.23497 1.581596,-0.492804 2.196749,0.408996 -0.617264,2.886899 -3.5633,3.124313 -2.386214,4.730361 1.670958,1.649936 3.254667,-2.475901 3.95918,-1.484343 3.346139,-0.580569 -2.907658,2.890885 -2.058331,4.353294 -0.736493,3.445524 1.324011,-0.90178 2.85239,-2.539748 4.084807,-3.856504 1.234648,-1.316765 3.175924,-3.138283 5.208734,-3.712863 2.037093,-0.580579 14.925852,0.702265 17.901633,0.939679 2.977953,0.233398 14.063793,0.5367 16.999148,0.524703 2.94169,-0.01581 7.909915,1.622013 12.21182,2.747245 5.625912,1.424491 5.283252,1.651929 8.718812,3.59914 3.44624,1.949204 3.96135,5.999234 6.99886,9.588397 4.31047,2.7612 6.918,3.97421 8.6741,7.08057 2.90133,6.71148 5.82817,18.10344 9.20412,30.51291 3.3739,12.41543 3.96136,29.51934 3.98694,36.15102 0.0241,6.62768 6.41985,2.82903 9.70222,2.90284 0.28299,4.89596 -1.64755,9.88169 -2.57562,10.96702 -0.92596,1.08134 -3.49095,3.4934 -5.11931,5.66206 -1.17715,1.55418 -4.49776,2.93877 -5.3769,4.28944 h 5.10441 c 2.76508,-1.79558 3.11414,-2.02501 5.73876,-3.90439 8.89759,-5.17726 10.51744,-4.27348 7.66939,-7.36986 -0.30651,-0.33315 -1.80719,-1.8694 -0.35117,-4.61065 1.45386,-2.74325 1.86676,-6.62769 2.05411,-8.95197 1.07922,-0.74816 4.55521,-4.90792 5.65783,-6.80924 1.10475,-1.91129 6.97975,-8.21179 9.55747,-10.86326 2.58201,-2.64349 2.75869,-5.28699 3.96775,-7.93048 1.21335,-2.63352 4.52334,-6.7035 5.21724,-7.68908 0.69396,-0.98557 2.37553,-2.85896 2.71397,-3.31982 0.24256,-0.33916 1.69437,-2.97867 2.25848,-2.88889 3.94644,0.65439 12.9611,1.77762 13.91476,3.14426 1.09622,1.57412 2.44365,2.64748 3.8038,1.26089 1.36233,-1.39656 5.18104,-3.59914 10.79423,-3.47943 0.86205,0.0181 1.57091,-0.0378 2.17545,-0.13963 z"
       style="fill:#ffffff;fill-opacity:1;fill-rule:nonzero;stroke:none;stroke-width:2.06077"
       id="path546" />
  </g>
</svg>
