<?xml version="1.0" encoding="UTF-8" standalone="no"?>
<!-- Created with Inkscape (http://www.inkscape.org/) -->

<svg
   width="400"
   height="400"
   viewBox="0 0 105.83333 105.83333"
   version="1.1"
   id="svg5"
   inkscape:version="1.2.1 (9c6d41e410, 2022-07-14)"
   sodipodi:docname="basic.svg"
   xmlns:inkscape="http://www.inkscape.org/namespaces/inkscape"
   xmlns:sodipodi="http://sodipodi.sourceforge.net/DTD/sodipodi-0.dtd"
   xmlns="http://www.w3.org/2000/svg"
   xmlns:svg="http://www.w3.org/2000/svg">
  <sodipodi:namedview
     id="namedview7"
     pagecolor="#ffffff"
     bordercolor="#000000"
     borderopacity="0.25"
     inkscape:showpageshadow="2"
     inkscape:pageopacity="0.0"
     inkscape:pagecheckerboard="0"
     inkscape:deskcolor="#d1d1d1"
     inkscape:document-units="mm"
     showgrid="false"
     inkscape:zoom="0.2102413"
     inkscape:cx="397.16269"
     inkscape:cy="180.7447"
     inkscape:window-width="1920"
     inkscape:window-height="1217"
     inkscape:window-x="-8"
     inkscape:window-y="-8"
     inkscape:window-maximized="1"
     inkscape:current-layer="layer1" />
  <defs
     id="defs2" />
  <g
     inkscape:label="Vrstva 1"
     inkscape:groupmode="layer"
     id="layer1">
    <path
       style="fill:#4d4d4d;stroke:#333333;stroke-width:0.264583"
       d="M 2.5169491,2.5169491 103.19491,100.67797 h -1.25847"
       id="path1817" />
    <path
       style="fill:#999999;stroke:#010101;stroke-width:0.265;fill-opacity:1;stroke-opacity:1;stroke-dasharray:none"
       d="M 3.7754237,101.93644 104.45339,2.5169491"
       id="path1830" />
    <rect
       style="fill:#666666;fill-opacity:1;stroke:#010101;stroke-width:0.264999;stroke-dasharray:none;stroke-opacity:1"
       id="rect2670"
       width="105.71186"
       height="108.22881"
       x="1.2584745"
       y="1.2584745" />
    <path
       style="fill:#000000;fill-opacity:1;stroke:#010101;stroke-width:0.264999;stroke-dasharray:none;stroke-opacity:1"
       d="M 1.2584745,2.5169491 105.71186,106.97034"
       id="path2957" />
    <path
       style="fill:#000000;fill-opacity:1;stroke:#010101;stroke-width:0.264999;stroke-dasharray:none;stroke-opacity:1"
       d="M 2.5169491,104.45339 103.19491,2.5169491"
       id="path2959" />
    <path
       style="fill:#b3b3b3;fill-opacity:1;stroke:#010101;stroke-width:4.76393;stroke-dasharray:none;stroke-opacity:1"
       d="M 7.8542474,403.10823 C 8.2500212,399.83818 51.600656,354.93876 104.189,303.33175 L 199.80415,209.50082 299.90107,309.2773 399.998,409.05378 H 203.56633 c -154.358159,0 -196.2775428,-1.27347 -195.7120826,-5.94555 z"
       id="path3099"
       transform="scale(0.26458333)" />
    <path
       style="fill:#b3b3b3;fill-opacity:1;stroke:#010101;stroke-width:4.76393;stroke-dasharray:none;stroke-opacity:1"
       d="M 104.46586,104.4657 9.6020757,9.5128787 H 197.07618 384.55027 L 292.32769,103.45256 c -50.72241,51.66682 -92.39705,94.39559 -92.61031,94.95281 -0.21323,0.55723 -43.07644,-41.71562 -95.25152,-93.93967 z"
       id="path3101"
       transform="scale(0.26458333)" />
    <path
       style="fill:#b3b3b3;fill-opacity:1;stroke:#010101;stroke-width:4.76393;stroke-dasharray:none;stroke-opacity:1"
       d="m 303.22301,303.22589 c -52.97485,-53.02316 -96.3179,-98.5471 -96.3179,-101.1643 0,-6.5135 189.25167,-195.1400975 192.5138,-191.877963 1.43449,1.43449 2.04878,89.647128 1.36508,196.028093 l -1.24309,193.41992 z"
       id="path3103"
       transform="scale(0.26458333)" />
    <path
       style="fill:#b3b3b3;fill-opacity:1;stroke:#010101;stroke-width:4.76393;stroke-dasharray:none;stroke-opacity:1"
       d="M 7.134659,204.52689 V 16.677642 l 93.924621,93.924628 93.92463,93.92462 -93.92463,93.92462 -93.924621,93.92463 z"
       id="path3105"
       transform="scale(0.26458333)" />
  </g>
</svg>
