<?xml version="1.0" encoding="UTF-8" standalone="no"?>
<!-- Created with Inkscape (http://www.inkscape.org/) -->

<svg
   version="1.1"
   id="svg2"
   width="512"
   height="512"
   viewBox="0 0 512 512"
   sodipodi:docname="instagram.svg"
   inkscape:version="1.2.1 (9c6d41e410, 2022-07-14)"
   xmlns:inkscape="http://www.inkscape.org/namespaces/inkscape"
   xmlns:sodipodi="http://sodipodi.sourceforge.net/DTD/sodipodi-0.dtd"
   xmlns="http://www.w3.org/2000/svg"
   xmlns:svg="http://www.w3.org/2000/svg">
  <defs
     id="defs6" />
  <sodipodi:namedview
     id="namedview4"
     pagecolor="#ffffff"
     bordercolor="#000000"
     borderopacity="0.25"
     inkscape:showpageshadow="2"
     inkscape:pageopacity="0.0"
     inkscape:pagecheckerboard="0"
     inkscape:deskcolor="#d1d1d1"
     showgrid="false"
     inkscape:zoom="0.4609375"
     inkscape:cx="247.32203"
     inkscape:cy="256"
     inkscape:window-width="1920"
     inkscape:window-height="1217"
     inkscape:window-x="-8"
     inkscape:window-y="-8"
     inkscape:window-maximized="1"
     inkscape:current-layer="g8" />
  <g
     inkscape:groupmode="layer"
     inkscape:label="Image"
     id="g8">
    <path
       style="fill:#fdc300;fill-opacity:1;stroke:#fdc300;stroke-width:2.16949"
       d="m 176.81356,509.71559 c -55.41603,-1.09442 -62.0782,-1.63317 -75.9322,-6.1404 C 66.045919,492.24194 33.914689,465.72305 18.917166,435.92767 4.1584386,406.60669 2.6521858,395.34707 1.5225335,305.89831 0.97250647,262.34576 1.233469,201.32881 2.1024503,170.30508 3.4961623,120.54781 4.2552999,112.10805 8.5421054,98.711864 21.659134,57.721387 56.162261,22.684787 96.542373,9.3509725 L 113.89831,3.6199144 222.37288,1.9615488 c 160.57546,-2.45488653 184.0128,-0.2970049 218.81496,20.1463332 34.62619,20.339983 57.64198,53.589734 66.44385,95.988118 3.28589,15.82806 3.60936,259.59009 0.36582,275.66671 -6.28526,31.15279 -18.06013,53.62903 -39.31434,75.04436 -18.85893,19.00191 -38.34457,29.77725 -66.24249,36.63135 -15.21525,3.73816 -26.45381,4.33887 -91.11865,4.87046 -40.56949,0.3335 -101.0983,0.0666 -134.50847,-0.59329 z m 209.53765,-46.36136 c 40.53682,-7.23148 66.77313,-31.34494 77.10282,-70.86421 3.1204,-11.93801 3.77014,-30.48428 4.57567,-130.60927 C 469.05628,134.2831 468.24079,122.73255 456.47922,98.294899 443.01752,70.324584 415.97236,51.980097 381.79176,47.635055 355.94414,44.349301 130.48054,46.041173 117.40129,49.619033 84.533135,58.610198 62.166973,79.591667 51.192517,111.72881 c -4.234044,12.39881 -4.478895,18.76014 -5.156104,133.95747 -0.782586,133.12291 0.163102,146.88555 11.71571,170.49821 12.358873,25.26063 37.125766,42.13554 69.163127,47.12429 25.69669,4.00139 237.05292,4.03842 259.43596,0.0453 z"
       id="path916" />
    <path
       style="fill:#fdc300;fill-opacity:1;stroke:#fdc300;stroke-width:2.16949"
       d="m 235.81059,384.05528 c -26.17588,-3.4854 -57.77262,-20.97493 -77.33913,-42.80899 -46.94496,-52.38542 -42.1258,-136.07681 10.5446,-183.12183 14.50057,-12.95186 40.77358,-26.60903 58.14233,-30.22341 20.54789,-4.27595 57.31656,-1.66733 74.40093,5.27851 43.50341,17.68679 75.55792,56.21737 82.77194,99.49456 12.6904,76.13034 -43.24118,147.19595 -119.65329,152.02919 -8.94916,0.56606 -21.93948,0.27444 -28.86738,-0.64803 z m 53.26691,-49.71091 c 37.1766,-14.5756 60.47761,-59.38492 50.70883,-97.51624 -4.95303,-19.33358 -11.19952,-30.20577 -25.25761,-43.96161 -9.84304,-9.63141 -15.86022,-13.41285 -28.92566,-18.17809 -51.50932,-18.78649 -103.42005,11.61353 -114.56122,67.08945 -6.07072,30.22836 11.43614,69.07308 38.79904,86.08844 22.13055,13.76167 54.01106,16.36807 79.23662,6.47805 z"
       id="path918" />
    <path
       style="fill:#fdc300;fill-opacity:1;stroke:#fdc300;stroke-width:2.16949"
       d="m 378.40264,143.56334 c -9.08613,-5.71595 -14.75254,-18.08151 -12.87409,-28.09452 1.72166,-9.17723 12.92612,-21.250736 21.78436,-23.474016 9.357,-2.34845 22.7905,3.24685 28.61637,11.919246 7.65567,11.39625 6.81277,24.2888 -2.23333,34.1598 -5.99748,6.54438 -8.95654,7.99377 -17.89831,8.76688 -8.0306,0.69432 -12.38596,-0.12627 -17.395,-3.27739 z"
       id="path920" />
  </g>
</svg>
