<?xml version="1.0" encoding="UTF-8" standalone="no"?>
<!-- Created with Inkscape (http://www.inkscape.org/) -->

<svg
   width="210mm"
   height="297mm"
   viewBox="0 0 210 297"
   version="1.1"
   id="svg2874"
   inkscape:version="1.2.1 (9c6d41e410, 2022-07-14)"
   sodipodi:docname="logo-barva.svg"
   xmlns:inkscape="http://www.inkscape.org/namespaces/inkscape"
   xmlns:sodipodi="http://sodipodi.sourceforge.net/DTD/sodipodi-0.dtd"
   xmlns="http://www.w3.org/2000/svg"
   xmlns:svg="http://www.w3.org/2000/svg">
  <sodipodi:namedview
     id="namedview2876"
     pagecolor="#ffffff"
     bordercolor="#000000"
     borderopacity="0.25"
     inkscape:showpageshadow="2"
     inkscape:pageopacity="0.0"
     inkscape:pagecheckerboard="0"
     inkscape:deskcolor="#d1d1d1"
     inkscape:document-units="mm"
     showgrid="false"
     inkscape:zoom="0.2102413"
     inkscape:cx="397.16269"
     inkscape:cy="561.25984"
     inkscape:window-width="1920"
     inkscape:window-height="1217"
     inkscape:window-x="-8"
     inkscape:window-y="-8"
     inkscape:window-maximized="1"
     inkscape:current-layer="layer1" />
  <defs
     id="defs2871" />
  <g
     inkscape:label="Vrstva 1"
     inkscape:groupmode="layer"
     id="layer1">
    <path
       d="M 209.63315,209.94472 H 1.3982271 V -2.8420614 H 209.63315 Z"
       style="fill:#fbbc09;fill-opacity:1;fill-rule:nonzero;stroke:none;stroke-width:2.13893"
       id="path20" />
    <path
       d="m 6.6562902,235.70141 c 0,0.6312 0.041933,1.20963 0.122961,1.73738 0.084567,0.52354 0.2369163,0.98375 0.457036,1.36795 0.2243247,0.38842 0.5266169,0.6903 0.9140836,0.90985 0.3874667,0.22799 0.873891,0.33774 1.457906,0.33774 0.6072362,0 1.1023622,-0.10975 1.4768632,-0.33774 0.372481,-0.21955 0.672916,-0.52145 0.895068,-0.90985 0.22193,-0.38423 0.374279,-0.84441 0.457047,-1.36795 0.08036,-0.52773 0.122961,-1.10618 0.122961,-1.73738 v -17.47089 h 5.082447 v 17.48356 c 0,1.59172 -0.221931,2.90901 -0.668594,3.95185 -0.446243,1.03863 -1.043154,1.86404 -1.798592,2.47412 -0.751117,0.6101 -1.608095,1.01752 -2.570816,1.22652 -0.964894,0.21112 -1.9615,0.31876 -2.9961389,0.31876 -1.0346968,0 -2.0334176,-0.0949 -2.9961974,-0.28286 -0.9627215,-0.18575 -1.8197107,-0.56789 -2.5708275,-1.14206 -0.7532777,-0.56998 -1.3499428,-1.38485 -1.7985338,-2.44036 -0.4462431,-1.05129 -0.6686405,-2.41923 -0.6686405,-4.10596 v -17.48355 h 5.0824462 z"
       style="fill:#9c9a9b;fill-opacity:1;fill-rule:nonzero;stroke:none;stroke-width:2.11348"
       id="path22" />
    <path
       d="m 32.917112,235.3932 h 0.06354 v -17.16268 h 4.657135 v 25.06216 h -5.770103 l -6.195485,-17.55322 h -0.06962 v 17.55322 h -4.655043 v -25.06216 h 5.84209 z"
       style="fill:#9c9a9b;fill-opacity:1;fill-rule:nonzero;stroke:none;stroke-width:2.11348"
       id="path24" />
    <path
       d="m 41.249585,218.23052 h 5.082517 v 25.06216 h -5.082517 z"
       style="fill:#9c9a9b;fill-opacity:1;fill-rule:nonzero;stroke:none;stroke-width:2.11348"
       id="path26" />
    <path
       d="m 64.789345,222.38503 h -5.486651 v 20.90765 h -5.084549 v -20.90765 h -5.488742 v -4.15451 h 16.059942 z"
       style="fill:#9c9a9b;fill-opacity:1;fill-rule:nonzero;stroke:none;stroke-width:2.11348"
       id="path28" />
    <path
       d="m 81.09466,222.38503 h -8.975756 v 5.88977 h 8.448893 v 4.15451 h -8.448893 v 6.70886 h 9.326989 v 4.15451 H 67.036458 V 218.23052 H 81.09466 Z"
       style="fill:#9c9a9b;fill-opacity:1;fill-rule:nonzero;stroke:none;stroke-width:2.11348"
       id="path30" />
    <path
       d="m 91.48814,239.56249 c 0.890805,0 1.60174,-0.1499 2.141311,-0.45807 0.53741,-0.3019 0.964882,-0.80642 1.282231,-1.50517 0.315491,-0.70298 0.526617,-1.6276 0.630562,-2.77179 0.105592,-1.14629 0.158949,-2.56912 0.158949,-4.27695 0,-1.42495 -0.04801,-2.67679 -0.141557,-3.75341 -0.09111,-1.07451 -0.285496,-1.96959 -0.577602,-2.681 -0.293894,-0.71143 -0.727838,-1.25185 -1.299145,-1.61284 -0.575803,-0.36311 -1.341486,-0.54467 -2.300014,-0.54467 h -2.141311 v 17.6039 z m 0.983898,-21.33197 c 1.760444,0 3.180201,0.28496 4.261445,0.85919 1.079153,0.57208 1.919159,1.38907 2.520087,2.45724 0.596794,1.06396 1.00297,2.34325 1.21458,3.84418 0.20932,1.49672 0.31549,3.16867 0.31549,5.01793 0,2.1997 -0.13316,4.1144 -0.40426,5.73989 -0.27111,1.62549 -0.734208,2.96389 -1.390199,4.01941 -0.660125,1.05129 -1.540382,1.83448 -2.642744,2.34957 -1.104511,0.51719 -2.50106,0.77475 -4.191689,0.77475 h -7.996062 v -25.06216 z"
       style="fill:#9c9a9b;fill-opacity:1;fill-rule:nonzero;stroke:none;stroke-width:2.11348"
       id="path32" />
    <path
       d="m 123.56982,224.24063 c -0.1056,-0.48979 -0.27531,-0.93942 -0.50984,-1.35106 -0.23691,-0.41165 -0.535,-0.74942 -0.8971,-1.01963 -0.36407,-0.26599 -0.80408,-0.40111 -1.31821,-0.40111 -1.22095,0 -2.10113,0.67553 -2.6407,2.03292 -0.53982,1.35318 -0.81039,3.59931 -0.81039,6.73209 0,1.49672 0.048,2.85199 0.13976,4.07006 0.093,1.21384 0.26451,2.24825 0.50802,3.1011 0.24771,0.85286 0.59679,1.50728 1.05371,1.96537 0.45524,0.45389 1.04735,0.68398 1.7689,0.68398 0.3071,0 0.63692,-0.0845 1.00082,-0.24697 0.36407,-0.16251 0.70037,-0.40744 1.01778,-0.73463 0.31549,-0.32931 0.5776,-0.74098 0.78926,-1.24341 0.20933,-0.50032 0.3155,-1.08928 0.3155,-1.76692 v -2.55225 h -3.34318 v -3.7302 h 8.1971 v 13.51271 h -3.73034 v -2.32213 h -0.0678 c -0.61154,0.98586 -1.34365,1.6846 -2.20057,2.09625 -0.85273,0.41164 -1.87897,0.61853 -3.07657,0.61853 -1.54884,0 -2.80787,-0.27024 -3.77904,-0.81063 -0.97334,-0.53408 -1.73718,-1.36584 -2.28731,-2.48891 -0.55,-1.12518 -0.91833,-2.51212 -1.10876,-4.16085 -0.18594,-1.65082 -0.2813,-3.56552 -0.2813,-5.74199 0,-2.10682 0.13735,-3.95608 0.40845,-5.54568 0.2705,-1.59383 0.7363,-2.91956 1.39223,-3.98775 0.6623,-1.06183 1.52983,-1.86403 2.61108,-2.40446 1.08124,-0.53622 2.43334,-0.80641 4.052,-0.80641 2.76762,0 4.76084,0.68186 5.98388,2.05826 1.21661,1.37005 1.82815,3.33332 1.82815,5.88555 h -4.85609 c 0,-0.47077 -0.048,-0.94785 -0.15893,-1.44183"
       style="fill:#9c9a9b;fill-opacity:1;fill-rule:nonzero;stroke:none;stroke-width:2.11348"
       id="path34" />
    <path
       d="m 143.02793,233.83737 -2.4291,-11.25602 h -0.0696 l -2.42699,11.25602 z m 0.66649,-15.60685 6.65252,25.06216 h -5.27715 l -1.16376,-5.3008 h -6.6842 l -1.16168,5.3008 h -5.27924 l 6.65246,-25.06216 z"
       style="fill:#9c9a9b;fill-opacity:1;fill-rule:nonzero;stroke:none;stroke-width:2.11348"
       id="path36" />
    <path
       d="m 159.99553,218.23052 3.58861,17.68833 h 0.0702 l 3.62244,-17.68833 h 7.49253 v 25.06216 h -4.6572 v -20.00835 h -0.0677 l -4.46034,20.00835 h -3.9293 l -4.46034,-20.00835 h -0.0702 v 20.00835 h -4.65503 v -25.06216 z"
       style="fill:#9c9a9b;fill-opacity:1;fill-rule:nonzero;stroke:none;stroke-width:2.11348"
       id="path38" />
    <path
       d="m 192.37351,222.38503 h -8.97365 v 5.88977 h 8.44463 v 4.15451 h -8.44463 v 6.70886 h 9.32278 v 4.15451 h -14.40523 v -25.06216 h 14.0561 z"
       style="fill:#9c9a9b;fill-opacity:1;fill-rule:nonzero;stroke:none;stroke-width:2.11348"
       id="path40" />
    <path
       d="m 199.629,236.18696 c 0,0.5911 0.048,1.12306 0.14394,1.60016 0.093,0.4792 0.26871,0.88451 0.52902,1.21172 0.25791,0.32721 0.60723,0.58476 1.041,0.77265 0.43784,0.18789 0.98395,0.28286 1.64409,0.28286 0.77655,0 1.47692,-0.25546 2.10322,-0.75786 0.62211,-0.50242 0.93526,-1.27929 0.93526,-2.33058 0,-0.56155 -0.078,-1.04707 -0.23033,-1.45662 -0.15233,-0.40745 -0.40605,-0.77685 -0.75753,-1.10406 -0.35327,-0.32721 -0.81884,-0.62486 -1.3944,-0.89507 -0.57579,-0.27024 -1.28858,-0.54467 -2.13495,-0.82753 -1.12778,-0.36945 -2.10533,-0.78109 -2.93058,-1.22651 -0.82519,-0.44545 -1.51075,-0.96474 -2.06514,-1.56217 -0.55,-0.59529 -0.95853,-1.2835 -1.21667,-2.06881 -0.25792,-0.78318 -0.38687,-1.68882 -0.38687,-2.72112 0,-2.47623 0.69186,-4.32549 2.07995,-5.54146 1.38378,-1.21806 3.29028,-1.82392 5.70666,-1.82392 1.12779,0 2.17094,0.12453 3.12101,0.36945 0.95,0.24486 1.77526,0.64598 2.46712,1.19695 0.69192,0.54886 1.23359,1.25185 1.62297,2.10682 0.38506,0.85918 0.57761,1.88093 0.57761,3.07577 v 0.70298 h -4.85184 c 0,-1.19486 -0.21352,-2.11315 -0.63476,-2.7549 -0.42284,-0.64809 -1.12988,-0.96686 -2.11594,-0.96686 -0.5608,0 -1.03469,0.0824 -1.40921,0.24487 -0.37847,0.16468 -0.67494,0.38208 -0.90136,0.65231 -0.22193,0.26599 -0.37247,0.57632 -0.45525,0.92673 -0.0846,0.35252 -0.12475,0.71143 -0.12475,1.0893 0,0.77264 0.16494,1.42284 0.49303,1.94637 0.32988,0.52773 1.0368,1.01329 2.11378,1.45451 l 3.91447,1.68671 c 0.96273,0.42007 1.7499,0.86129 2.36138,1.31728 0.60939,0.45807 1.09816,0.94785 1.46422,1.47139 0.36166,0.52773 0.61574,1.10828 0.75537,1.73737 0.13975,0.63542 0.21173,1.33417 0.21173,2.10682 0,2.64512 -0.77229,4.56826 -2.31057,5.77577 -1.5404,1.20117 -3.68596,1.80705 -6.43667,1.80705 -2.87132,0 -4.9238,-0.62697 -6.15739,-1.87038 -1.23352,-1.2455 -1.85353,-3.02511 -1.85353,-5.34512 v -1.01753 h 5.08245 z"
       style="fill:#9c9a9b;fill-opacity:1;fill-rule:nonzero;stroke:none;stroke-width:2.11348"
       id="path42" />
    <path
       d="m 6.5822122,268.55961 c 0.082815,1.18218 0.2435158,2.13847 0.4888304,2.87522 0.2435158,0.73676 0.5943991,1.27507 1.0494611,1.61072 0.4528427,0.34199 1.0537712,0.51295 1.800683,0.51295 0.7426723,0 1.3456913,-0.17103 1.7985333,-0.51295 0.452843,-0.33564 0.801927,-0.87396 1.04952,-1.61072 0.243515,-0.73675 0.406062,-1.69304 0.48883,-2.87522 0.08036,-1.18217 0.122949,-2.61345 0.122949,-4.29383 0,-1.68672 -0.04193,-3.10744 -0.122949,-4.27696 -0.08282,-1.17162 -0.245315,-2.12791 -0.48883,-2.87522 -0.247709,-0.74941 -0.596794,-1.29406 -1.04952,-1.63394 -0.452842,-0.33774 -1.055861,-0.50666 -1.7985333,-0.50666 -0.7469118,0 -1.3478403,0.16887 -1.800683,0.50666 -0.4546415,0.33989 -0.8061789,0.88453 -1.0494611,1.63394 -0.2453146,0.74731 -0.4060504,1.7036 -0.4888304,2.87522 -0.080362,1.16952 -0.1229493,2.59024 -0.1229493,4.27696 0,1.68038 0.041933,3.11166 0.1229493,4.29383 M 1.641556,259.01775 c 0.1757454,-1.60228 0.5608059,-2.97655 1.1595151,-4.12073 0.5967936,-1.15051 1.4578593,-2.04559 2.5835475,-2.68946 1.1277791,-0.64386 2.636437,-0.96474 4.5365681,-0.96474 1.8958793,0 3.4087423,0.32087 4.5323273,0.96474 1.127779,0.64387 1.988962,1.53895 2.585639,2.68946 0.596793,1.14418 0.983898,2.51845 1.161676,4.12073 0.173339,1.60439 0.262099,3.35443 0.262099,5.25225 0,1.91681 -0.08877,3.67108 -0.262099,5.2628 -0.177544,1.59593 -0.565011,2.96177 -1.161676,4.11229 -0.596794,1.14418 -1.45786,2.02448 -2.585639,2.63245 -1.123585,0.60587 -2.636448,0.91197 -4.5323273,0.91197 -1.9001311,0 -3.408789,-0.30608 -4.5365681,-0.91197 -1.1256882,-0.60797 -1.9868707,-1.48827 -2.5835475,-2.63245 -0.5985924,-1.15052 -0.9838982,-2.51636 -1.1595151,-4.11229 -0.1775324,-1.59172 -0.2645057,-3.34599 -0.2645057,-5.2628 0,-1.89782 0.08702,-3.64786 0.2645057,-5.25225"
       style="fill:#9c9a9b;fill-opacity:1;fill-rule:nonzero;stroke:none;stroke-width:2.11348"
       id="path44" />
    <path
       d="m 35.494294,251.73469 v 4.15451 H 26.52064 v 5.88978 h 8.444642 v 4.15451 H 26.52064 v 10.86337 h -5.084607 v -25.06217 z"
       style="fill:#9c9a9b;fill-opacity:1;fill-rule:nonzero;stroke:none;stroke-width:2.11348"
       id="path46" />
    <path
       d="m 58.14534,268.89948 h 0.06541 v -17.16479 h 4.657193 v 25.06217 h -5.770162 l -6.195426,-17.55534 h -0.06962 v 17.55534 h -4.655102 v -25.06217 h 5.84209 z"
       style="fill:#9c9a9b;fill-opacity:1;fill-rule:nonzero;stroke:none;stroke-width:2.11348"
       id="path48" />
    <path
       d="m 77.171729,267.34154 -2.426935,-11.25601 h -0.07195 l -2.426935,11.25601 z m 0.66864,-15.60685 6.650371,25.06217 h -5.277149 l -1.161606,-5.30081 h -6.686359 l -1.161605,5.30081 h -5.27715 l 6.650372,-25.06217 z"
       style="fill:#9c9a9b;fill-opacity:1;fill-rule:nonzero;stroke:none;stroke-width:2.11348"
       id="path50" />
    <path
       d="M 99.234554,255.8892 H 93.74371 v 20.90766 H 88.661264 V 255.8892 H 83.17251 v -4.15451 h 16.062044 z"
       style="fill:#9c9a9b;fill-opacity:1;fill-rule:nonzero;stroke:none;stroke-width:2.11348"
       id="path52" />
    <path
       d="m 101.60229,251.73469 h 5.08245 v 25.06217 h -5.08245 z"
       style="fill:#9c9a9b;fill-opacity:1;fill-rule:nonzero;stroke:none;stroke-width:2.11348"
       id="path54" />
    <path
       d="m 115.03418,268.55961 c 0.0804,1.18218 0.24532,2.13847 0.48883,2.87522 0.24532,0.73676 0.5926,1.27507 1.04952,1.61072 0.45285,0.34199 1.05161,0.51295 1.80063,0.51295 0.74482,0 1.3415,-0.17103 1.79853,-0.51295 0.45525,-0.33564 0.80409,-0.87396 1.04952,-1.61072 0.24532,-0.73675 0.40606,-1.69304 0.48883,-2.87522 0.0804,-1.18217 0.12056,-2.61345 0.12056,-4.29383 0,-1.68672 -0.0419,-3.10744 -0.12056,-4.27696 -0.0828,-1.17162 -0.24351,-2.12791 -0.48883,-2.87522 -0.24531,-0.74941 -0.5944,-1.29406 -1.04952,-1.63394 -0.45703,-0.33774 -1.05371,-0.50666 -1.79853,-0.50666 -0.74902,0 -1.34784,0.16887 -1.80063,0.50666 -0.45704,0.33989 -0.80408,0.88453 -1.04952,1.63394 -0.24351,0.74731 -0.40845,1.7036 -0.48883,2.87522 -0.0804,1.16952 -0.12295,2.59024 -0.12295,4.27696 0,1.68038 0.0419,3.11166 0.12295,4.29383 m -4.94071,-9.54186 c 0.17334,-1.60228 0.56081,-2.97655 1.15741,-4.12073 0.59859,-1.15051 1.46002,-2.04559 2.58355,-2.68946 1.12569,-0.64386 2.6386,-0.96474 4.53867,-0.96474 1.89588,0 3.40879,0.32087 4.53233,0.96474 1.12778,0.64387 1.98896,1.53895 2.58569,2.68946 0.5968,1.14418 0.98599,2.51845 1.15952,4.12073 0.17753,1.60439 0.26451,3.35443 0.26451,5.25225 0,1.91681 -0.087,3.67108 -0.26451,5.2628 -0.17334,1.59593 -0.5626,2.96177 -1.15952,4.11229 -0.59679,1.14418 -1.45791,2.02448 -2.58569,2.63245 -1.12354,0.60587 -2.63645,0.91197 -4.53233,0.91197 -1.90007,0 -3.41298,-0.30608 -4.53867,-0.91197 -1.12353,-0.60797 -1.98471,-1.48827 -2.58355,-2.63245 -0.59678,-1.15052 -0.9839,-2.51636 -1.15741,-4.11229 -0.17573,-1.59172 -0.26451,-3.34599 -0.26451,-5.2628 0,-1.89782 0.0888,-3.64786 0.26451,-5.25225"
       style="fill:#9c9a9b;fill-opacity:1;fill-rule:nonzero;stroke:none;stroke-width:2.11348"
       id="path56" />
    <path
       d="m 141.8557,268.89948 h 0.0677 v -17.16479 h 4.65714 v 25.06217 h -5.77228 l -6.19331,-17.55534 h -0.072 v 17.55534 h -4.65714 v -25.06217 h 5.84627 z"
       style="fill:#9c9a9b;fill-opacity:1;fill-rule:nonzero;stroke:none;stroke-width:2.11348"
       id="path58" />
    <path
       d="m 154.20425,269.69324 c 0,0.58901 0.048,1.12095 0.14395,1.59804 0.0953,0.4792 0.27051,0.88242 0.52901,1.21174 0.25792,0.3272 0.6073,0.58476 1.04107,0.77263 0.43604,0.1879 0.9839,0.28287 1.64408,0.28287 0.77656,0 1.47692,-0.2533 2.10113,-0.75786 0.62421,-0.50242 0.93735,-1.27928 0.93735,-2.33058 0,-0.56154 -0.0762,-1.04707 -0.23091,-1.45661 -0.15235,-0.40745 -0.40606,-0.77686 -0.75749,-1.10406 -0.35327,-0.32511 -0.81882,-0.62488 -1.39438,-0.89508 -0.5776,-0.27024 -1.2886,-0.54467 -2.13712,-0.82753 -1.12563,-0.36945 -2.10323,-0.78108 -2.92843,-1.22651 -0.82309,-0.44545 -1.51075,-0.96474 -2.06304,-1.56216 -0.5542,-0.59745 -0.95851,-1.28351 -1.21877,-2.06882 -0.2579,-0.78108 -0.38926,-1.68881 -0.38926,-2.719 0,-2.47835 0.69402,-4.32761 2.07995,-5.54145 1.38803,-1.22018 3.29028,-1.82605 5.71092,-1.82605 1.12567,0 2.16668,0.12453 3.11675,0.36945 0.95216,0.24487 1.77736,0.64598 2.46928,1.19696 0.69192,0.54885 1.23359,1.25184 1.62081,2.10892 0.38747,0.85708 0.58,1.87881 0.58,3.07367 v 0.70508 h -4.85393 c 0,-1.19696 -0.20933,-2.11526 -0.63266,-2.75701 -0.42525,-0.64809 -1.12994,-0.96686 -2.11594,-0.96686 -0.56261,0 -1.0347,0.0824 -1.40921,0.24487 -0.37667,0.16468 -0.6771,0.38208 -0.89927,0.6523 -0.22432,0.26599 -0.37426,0.57633 -0.45704,0.92674 -0.0846,0.35253 -0.12716,0.71143 -0.12716,1.0893 0,0.77264 0.16735,1.42284 0.49484,1.94637 0.32988,0.52773 1.03469,1.0133 2.11594,1.4545 l 3.91237,1.68671 c 0.96273,0.42009 1.74984,0.8613 2.35922,1.31728 0.61365,0.45809 1.10032,0.94786 1.46636,1.4714 0.36168,0.52773 0.61359,1.10829 0.75538,1.73738 0.14156,0.63331 0.21173,1.33417 0.21173,2.10892 0,2.643 -0.77019,4.56827 -2.31064,5.77367 -1.53822,1.20117 -3.68804,1.80704 -6.43875,1.80704 -2.86706,0 -4.92164,-0.62697 -6.15523,-1.86826 -1.23569,-1.24763 -1.85354,-3.02722 -1.85354,-5.34725 v -1.01751 h 5.08246 z"
       style="fill:#9c9a9b;fill-opacity:1;fill-rule:nonzero;stroke:none;stroke-width:2.11348"
       id="path60" />
    <path
       d="m 16.863536,170.54655 c -0.685566,-0.4771 -1.502304,-0.71774 -2.446009,-0.71774 -0.808282,0 -1.495938,0.15199 -2.069406,0.45389 -0.573397,0.30188 -1.045255,0.70508 -1.417666,1.21383 -0.370063,0.51087 -0.645373,1.09141 -0.82099,1.74582 -0.1775322,0.65232 -0.2645055,1.32996 -0.2645055,2.03293 0,0.76841 0.08702,1.49249 0.2645055,2.17858 0.175746,0.6861 0.450448,1.2814 0.82099,1.79015 0.372481,0.51086 0.846371,0.91409 1.426123,1.21807 0.579997,0.29974 1.273844,0.44965 2.079965,0.44965 0.590194,0 1.117219,-0.0971 1.57637,-0.29131 0.461229,-0.19424 0.856977,-0.46443 1.191297,-0.81063 0.332288,-0.34409 0.594399,-0.75576 0.782912,-1.23495 0.190135,-0.47711 0.302292,-0.99219 0.340674,-1.54528 h 1.796443 c -0.177544,1.69515 -0.763837,3.01455 -1.758353,3.95818 -0.994457,0.93941 -2.355017,1.41017 -4.081634,1.41017 -1.045256,0 -1.957179,-0.17946 -2.74009,-0.53617 -0.780809,-0.35886 -1.430375,-0.85286 -1.946678,-1.48194 -0.5182186,-0.62487 -0.9077177,-1.36584 -1.1658692,-2.2187 -0.2603125,-0.85707 -0.3892656,-1.77115 -0.3892656,-2.75068 0,-0.97951 0.139746,-1.8978 0.416855,-2.76122 0.2795035,-0.85919 0.685554,-1.60649 1.2229754,-2.24825 0.5356114,-0.64175 1.2039594,-1.14629 2.0037724,-1.51572 0.799824,-0.37154 1.716069,-0.5573 2.750707,-0.5573 0.704629,0 1.373281,0.095 2.001682,0.28078 0.630562,0.18999 1.189149,0.46442 1.682172,0.82753 0.491225,0.36311 0.901364,0.81908 1.227227,1.36371 0.328095,0.54677 0.541615,1.17797 0.643283,1.89572 h -1.796432 c -0.200928,-0.95419 -0.645384,-1.67194 -1.330938,-2.14903"
       style="fill:#ffffff;fill-opacity:1;fill-rule:nonzero;stroke:none;stroke-width:2.11348"
       id="path62" />
    <path
       d="m 29.51678,170.14335 h -7.748517 v -1.50095 h 9.864457 v 1.50095 l -8.370622,10.45593 h 8.597049 v 1.50095 H 21.127142 v -1.50095 z"
       style="fill:#ffffff;fill-opacity:1;fill-rule:nonzero;stroke:none;stroke-width:2.11348"
       id="path64" />
    <path
       d="m 43.07565,168.6424 v 1.50095 h -7.519999 v 4.2875 h 7.010062 v 1.50094 h -7.010062 v 4.66749 h 7.575003 v 1.50095 H 33.752866 V 168.6424 Z"
       style="fill:#ffffff;fill-opacity:1;fill-rule:nonzero;stroke:none;stroke-width:2.11348"
       id="path66" />
    <path
       d="m 53.392962,170.54655 c -0.685566,-0.4771 -1.502362,-0.71774 -2.446009,-0.71774 -0.806179,0 -1.495997,0.15199 -2.069406,0.45389 -0.573397,0.30188 -1.045256,0.70508 -1.417666,1.21383 -0.370063,0.51087 -0.645373,1.09141 -0.82099,1.74582 -0.177533,0.65232 -0.264506,1.32996 -0.264506,2.03293 0,0.76841 0.08702,1.49249 0.264506,2.17858 0.175734,0.6861 0.450448,1.2814 0.82099,1.79015 0.372469,0.51086 0.846371,0.91409 1.426123,1.21807 0.579997,0.29974 1.271683,0.44965 2.079953,0.44965 0.5926,0 1.117231,-0.0971 1.576382,-0.29131 0.461229,-0.19424 0.856919,-0.46443 1.191239,-0.81063 0.334087,-0.34409 0.594387,-0.75576 0.782911,-1.23495 0.190124,-0.47711 0.304687,-0.99219 0.340675,-1.54528 h 1.796431 c -0.177532,1.69515 -0.763884,3.01455 -1.758341,3.95818 -0.994516,0.93941 -2.355018,1.41017 -4.081635,1.41017 -1.045256,0 -1.957237,-0.17946 -2.737987,-0.53617 -0.782911,-0.35886 -1.432478,-0.85286 -1.948781,-1.48194 -0.518218,-0.62487 -0.907729,-1.36584 -1.165881,-2.2187 -0.2603,-0.85707 -0.389254,-1.77115 -0.389254,-2.75068 0,-0.97951 0.139746,-1.8978 0.41925,-2.76122 0.277097,-0.85919 0.683405,-1.60649 1.220873,-2.24825 0.53741,-0.64175 1.206062,-1.14629 2.003784,-1.51572 0.799825,-0.37154 1.718102,-0.5573 2.750696,-0.5573 0.70464,0 1.373222,0.095 2.003784,0.28078 0.62846,0.18999 1.189149,0.46442 1.68007,0.82753 0.490629,0.36311 0.901375,0.81908 1.229341,1.36371 0.325677,0.54677 0.539805,1.17797 0.64111,1.89572 h -1.794271 c -0.203334,-0.95419 -0.645373,-1.67194 -1.333041,-2.14903"
       style="fill:#ffffff;fill-opacity:1;fill-rule:nonzero;stroke:none;stroke-width:2.11348"
       id="path68" />
    <path
       d="m 60.800792,168.6424 v 5.78845 h 7.090494 v -5.78845 h 1.802786 v 13.45783 h -1.802786 v -6.16844 h -7.090494 v 6.16844 H 58.998007 V 168.6424 Z"
       style="fill:#ffffff;fill-opacity:1;fill-rule:nonzero;stroke:none;stroke-width:2.11348"
       id="path70" />
    <path
       d="m 15.426795,193.59479 c 0.376662,-0.0613 0.706731,-0.18574 0.990252,-0.3673 0.281303,-0.18365 0.508022,-0.42852 0.677109,-0.73463 0.171529,-0.31034 0.256108,-0.70931 0.256108,-1.20118 0,-0.67765 -0.188337,-1.23284 -0.56681,-1.66138 -0.376662,-0.42643 -0.986047,-0.63964 -1.828155,-0.63964 h -4.449852 v 4.69915 h 3.732503 c 0.415056,0 0.812533,-0.0317 1.189137,-0.095 m -0.374268,-6.10511 c 1.284392,0 2.289467,0.31242 3.011009,0.94152 0.725746,0.62909 1.087551,1.48828 1.087551,2.58179 0,0.81486 -0.185942,1.5305 -0.558411,2.14691 -0.370075,0.61433 -0.964883,1.03442 -1.783723,1.26241 v 0.0359 c 0.389265,0.0781 0.708833,0.20268 0.954276,0.37789 0.245315,0.17731 0.44024,0.38842 0.585989,0.63331 0.143951,0.24486 0.251914,0.5172 0.321495,0.81908 0.06775,0.30189 0.12295,0.61642 0.158937,0.94363 0.02395,0.32511 0.04205,0.65864 0.06004,0.99852 0.01203,0.34198 0.04205,0.67342 0.09531,1.00063 0.04801,0.32511 0.12295,0.63752 0.217726,0.93307 0.09298,0.29556 0.235117,0.5552 0.425253,0.78319 h -2.003784 c -0.127155,-0.1393 -0.211733,-0.32929 -0.256108,-0.56787 -0.04205,-0.23644 -0.07195,-0.50452 -0.08457,-0.80219 -0.01203,-0.29346 -0.02394,-0.6122 -0.03598,-0.95208 -0.01203,-0.3399 -0.04801,-0.67131 -0.112133,-1.00063 -0.04801,-0.32721 -0.114002,-0.63753 -0.190136,-0.93307 -0.07382,-0.29764 -0.194936,-0.5552 -0.357471,-0.77475 -0.163142,-0.21956 -0.376674,-0.39686 -0.641121,-0.52773 -0.264506,-0.13297 -0.615739,-0.19843 -1.055874,-0.19843 h -4.379966 v 5.75678 H 8.7104992 v -13.45783 z"
       style="fill:#ffffff;fill-opacity:1;fill-rule:nonzero;stroke:none;stroke-width:2.11348"
       id="path72" />
    <path
       d="m 31.190495,187.48969 v 1.50093 h -7.519999 v 4.28751 h 7.010062 v 1.50095 h -7.010062 v 4.66749 h 7.577105 v 1.50095 h -9.37989 v -13.45783 z"
       style="fill:#ffffff;fill-opacity:1;fill-rule:nonzero;stroke:none;stroke-width:2.11348"
       id="path74" />
    <path
       d="m 38.759202,193.93678 c 1.019816,0.0125 1.766739,-0.19209 2.238598,-0.62276 0.472033,-0.42852 0.708833,-1.04496 0.708833,-1.85138 0,-0.80429 -0.236916,-1.4165 -0.708833,-1.84081 -0.472034,-0.42223 -1.218782,-0.63121 -2.238598,-0.63121 h -3.514603 v 4.94616 z m 0.605122,-6.44709 c 1.362662,0 2.39521,0.34833 3.095587,1.04495 0.698274,0.69665 1.049507,1.67405 1.049507,2.928 0,1.25607 -0.351479,2.23559 -1.049507,2.94068 -0.700377,0.70297 -1.730822,1.04707 -3.093485,1.03441 h -4.121827 v 5.50979 h -1.802786 v -13.45783 z"
       style="fill:#ffffff;fill-opacity:1;fill-rule:nonzero;stroke:none;stroke-width:2.11348"
       id="path76" />
    <path
       d="m 55.001056,199.95321 c -0.920438,0.8592 -2.232302,1.28985 -3.933549,1.28985 -1.741369,0 -3.101941,-0.41165 -4.079473,-1.23496 -0.977603,-0.82119 -1.464214,-2.13002 -1.464214,-3.92652 v -8.59189 h 1.800637 v 8.59401 c 0,1.2054 0.321483,2.12158 0.964882,2.74434 0.641109,0.62063 1.567855,0.93096 2.778168,0.93096 1.144763,0 2.018596,-0.31033 2.615331,-0.93096 0.598592,-0.62276 0.899261,-1.53894 0.899261,-2.74434 v -8.59401 h 1.800636 v 8.59189 c 0,1.71838 -0.459442,3.01245 -1.381679,3.87163"
       style="fill:#ffffff;fill-opacity:1;fill-rule:nonzero;stroke:none;stroke-width:2.11348"
       id="path78" />
    <path
       d="m 65.713976,199.44657 c 0.791368,0 1.411312,-0.21531 1.855698,-0.64387 0.446244,-0.42643 0.668653,-1.01752 0.668653,-1.77537 0,-0.44121 -0.08036,-0.80642 -0.243516,-1.09562 -0.164953,-0.28922 -0.380867,-0.5193 -0.649637,-0.69032 -0.270509,-0.17096 -0.581795,-0.28921 -0.933099,-0.35886 -0.353278,-0.0696 -0.71729,-0.10342 -1.093952,-0.10342 h -4.087942 v 4.66749 z m -0.901364,-6.16844 c 1.017726,0 1.747736,-0.17946 2.194224,-0.53832 0.446243,-0.35886 0.670743,-0.89719 0.670743,-1.61705 0,-0.4771 -0.07616,-0.85497 -0.226719,-1.13151 -0.149955,-0.27868 -0.359877,-0.49189 -0.622047,-0.64387 -0.264506,-0.1499 -0.569204,-0.24696 -0.914084,-0.29129 -0.344879,-0.0443 -0.713085,-0.0655 -1.102409,-0.0655 h -3.582256 v 4.28751 z m -0.491224,-5.78844 c 0.2897,0 0.600928,0.004 0.935248,0.0109 0.332288,0.004 0.664389,0.0233 0.990264,0.055 0.328083,0.0317 0.634756,0.0781 0.918336,0.14146 0.281302,0.0633 0.524818,0.15624 0.725747,0.28286 0.440251,0.2639 0.816738,0.62698 1.125688,1.09352 0.307093,0.46442 0.461241,1.03652 0.461241,1.71416 0,0.71775 -0.173339,1.33628 -0.520625,1.85559 -0.347274,0.52355 -0.842167,0.90986 -1.485379,1.16107 v 0.0359 c 0.831549,0.1752 1.466305,0.5531 1.906439,1.13362 0.442038,0.57632 0.662286,1.27928 0.662286,2.11102 0,0.48764 -0.08877,0.96686 -0.264506,1.43129 -0.175745,0.46441 -0.437844,0.87606 -0.782852,1.23495 -0.347274,0.35676 -0.774443,0.64598 -1.284392,0.86552 -0.50982,0.22165 -1.098157,0.33146 -1.766798,0.33146 H 59.42715 v -13.45789 z"
       style="fill:#ffffff;fill-opacity:1;fill-rule:nonzero;stroke:none;stroke-width:2.11348"
       id="path80" />
    <path
       d="m 74.321584,187.48969 v 11.95688 h 7.143384 v 1.50095 h -8.94402 v -13.45783 z"
       style="fill:#ffffff;fill-opacity:1;fill-rule:nonzero;stroke:none;stroke-width:2.11348"
       id="path82" />
    <path
       d="m 85.045122,200.94752 h -1.802797 v -13.45783 h 1.802797 z"
       style="fill:#ffffff;fill-opacity:1;fill-rule:nonzero;stroke:none;stroke-width:2.11348"
       id="path84" />
    <path
       d="m 96.369599,189.39384 c -0.685565,-0.47921 -1.502362,-0.71776 -2.446067,-0.71776 -0.806121,0 -1.495938,0.1499 -2.069347,0.45389 -0.573398,0.3019 -1.045256,0.70508 -1.415564,1.21384 -0.372469,0.50877 -0.647476,1.0914 -0.823093,1.74372 -0.177532,0.65441 -0.264505,1.33205 -0.264505,2.03503 0,0.7663 0.08702,1.49249 0.264505,2.17647 0.175734,0.6882 0.450449,1.28351 0.823093,1.79227 0.370074,0.50876 0.844269,0.91408 1.424021,1.21595 0.579997,0.30189 1.273774,0.45173 2.079952,0.45173 0.592601,0 1.117232,-0.0971 1.576382,-0.29345 0.461229,-0.19209 0.856919,-0.46233 1.19124,-0.80853 0.334086,-0.34409 0.594387,-0.75786 0.785002,-1.23495 0.188337,-0.47711 0.302304,-0.99219 0.338291,-1.54738 h 1.796432 c -0.177545,1.69726 -0.763896,3.01665 -1.758353,3.95818 -0.994516,0.94151 -2.355018,1.41017 -4.079532,1.41017 -1.047359,0 -1.95934,-0.17947 -2.74009,-0.53623 -0.7829,-0.35886 -1.432536,-0.85074 -1.948781,-1.47983 -0.518218,-0.62698 -0.907718,-1.36584 -1.165869,-2.22081 -0.260313,-0.85496 -0.389266,-1.76904 -0.389266,-2.74857 0,-0.97951 0.139746,-1.89992 0.41925,-2.76122 0.277109,-0.85919 0.683405,-1.60861 1.220873,-2.24826 0.537421,-0.64174 1.206062,-1.14628 2.005886,-1.51571 0.797723,-0.37155 1.716,-0.55729 2.748606,-0.55729 0.704569,0 1.373222,0.095 2.001681,0.28077 0.630551,0.18999 1.19124,0.46442 1.682173,0.82753 0.490629,0.36095 0.901363,0.81696 1.229329,1.36372 0.325689,0.54676 0.539816,1.17795 0.641121,1.89571 h -1.794282 c -0.203323,-0.95631 -0.647475,-1.67193 -1.333029,-2.14903"
       style="fill:#ffffff;fill-opacity:1;fill-rule:nonzero;stroke:none;stroke-width:2.11348"
       id="path86" />
    <path
       d="m 209.63315,139.28007 c -2.75921,-0.23643 -8.15692,-0.0252 -13.44678,0.0209 -4.59151,0.0358 -11.85978,-0.73253 -13.94603,-2.64512 -0.50142,-0.37154 1.16371,-2.51423 1.05582,-2.92378 -0.24113,-0.86551 -11.12344,-8.3639 -16.35823,-11.59167 -3.41935,-2.07726 -10.60928,-5.00947 -15.34049,-7.50893 -4.72911,-2.49735 -11.51281,-6.20221 -13.80647,-8.09581 -2.29576,-1.8957 -2.60045,-1.98014 -4.94911,-2.49312 -2.34872,-0.51302 -2.11175,-2.15325 -4.34405,-3.62042 -2.2344,-1.454497 -2.02915,-5.357795 -1.67155,-7.608155 0.35567,-2.250361 3.39181,-4.863821 5.87806,-6.945289 2.4841,-2.08781 7.3655,-3.310094 10.19028,-5.222692 2.82687,-1.90626 8.89538,-6.235989 13.88473,-9.35609 4.98937,-3.11377 12.56862,-7.350609 15.14371,-8.387126 2.58143,-1.034404 7.06511,0.356769 8.27117,0.529886 1.20186,0.175212 4.86664,1.703604 6.38165,2.746452 1.51076,1.036516 2.02705,-0.297645 1.31613,-0.819082 -0.7131,-0.521447 -3.29663,-1.807043 -4.05201,-2.583901 -0.75544,-0.783196 -0.57101,-1.500943 1.17007,-1.234953 5.81036,1.224396 7.03759,1.156843 6.97833,0.196335 -0.0419,-0.607977 -1.96354,-1.209616 -4.34189,-1.6466 -2.38885,-0.432764 -3.99694,-0.369453 -4.02238,-1.671936 -0.012,-1.300394 1.99324,-1.55161 3.94621,-1.640276 7.44598,-0.417984 7.02493,-2.062472 6.4832,-2.149025 -0.54581,-0.08653 -3.44046,-0.0065 -4.29108,0.249115 -0.84637,0.259647 -3.97158,0.168869 -4.32918,-0.443296 -0.13735,-0.94574 1.34996,-1.118845 4.44979,-2.934332 3.09558,-1.817601 -0.69402,-1.914703 -2.64915,-1.10829 -1.96144,0.806413 -8.82976,2.415015 -10.15008,2.007587 -1.31612,-0.403204 0.59859,-4.853261 -0.7639,-5.672341 -1.3584,-0.804301 -0.99235,2.028703 -2.71471,4.863815 -1.71601,2.826674 -8.68804,7.682046 -13.25844,8.891663 -4.57887,1.211735 -12.36967,4.846929 -14.79246,6.472422 -2.4333,1.625495 -11.42386,4.063735 -13.55462,4.878591 -2.1286,0.810637 -8.10191,3.261544 -11.17632,3.677416 -3.06601,0.411642 -2.97287,-3.635193 -0.586,-6.478754 2.38676,-2.832998 15.81871,-1.887259 14.76493,-3.502198 -1.05796,-1.62127 -8.44253,-4.205171 -13.01503,-5.336685 -3.80867,-0.949964 -9.99354,-6.61808 -17.00576,1.378504 -3.41719,3.890627 3.63096,9.522858 4.57886,10.736699 0.95433,1.213847 2.54546,4.849041 1.30977,6.073438 -1.23143,1.218067 -5.67066,3.006108 -8.63087,2.056146 -3.679605,-1.175848 -4.765042,-2.65568 -8.423526,-1.469281 -0.560806,0.18365 -1.366868,1.034409 -2.522178,1.203291 -4.809484,0.734634 -13.353632,1.433393 -15.054809,0.789526 -2.105393,-0.808521 -5.86962,-1.196954 -10.433673,-0.371546 -4.557686,0.821184 -16.227043,2.026587 -18.588415,0.211121 -3.679591,-2.849897 -6.644006,-3.791412 -9.096369,-5.015815 -3.594965,-1.790151 -2.9094,0.823306 -0.277098,2.797119 1.633523,1.222285 -0.287901,3.307985 -3.393919,4.393056 -1.751987,0.612199 -3.324164,0.787412 -3.324164,0.787412 -3.322002,-0.08871 -4.37151,1.918929 -2.886132,2.094142 1.48754,0.175213 3.410892,-0.175213 4.898373,-0.175213 1.485379,0 1.400753,0.175213 0,1.13362 -1.400695,0.958408 -5.054915,3.350209 -4.614793,4.226284 0.433652,0.869744 2.864955,-0.563639 4.528065,-1.262398 1.663098,-0.696634 1.650436,-0.835961 3.063851,-1.306719 1.572165,-0.521454 2.183653,0.432758 -0.61359,3.054653 -3.542064,3.305876 -2.37199,5.005261 1.661007,1.745819 3.235263,-2.617667 3.935581,-1.570596 3.326196,-0.614302 -2.890337,3.058881 -2.046068,4.606264 -0.732101,3.645753 1.316116,-0.95419 2.835392,-2.687346 4.060458,-4.080625 1.227297,-1.39328 3.157003,-3.320654 5.177701,-3.928625 2.024949,-0.614313 14.836908,0.74308 17.794957,0.996408 2.960198,0.24486 13.979977,0.565731 16.897845,0.5531 2.924164,-0.01678 7.862776,1.716276 12.139043,2.906891 5.592391,1.509384 5.251781,1.747934 8.666861,3.808304 3.42571,2.062473 3.93774,6.347867 6.95715,10.145607 4.2848,2.92167 6.87679,4.20517 8.62242,7.49206 2.88403,7.10149 5.79344,19.15548 9.14927,32.2861 3.35379,13.13695 3.93774,31.23481 3.96318,38.25188 0.024,7.01285 6.38159,2.99344 9.6444,3.07155 0.2813,5.18047 -1.63773,10.45594 -2.56027,11.60434 -0.92044,1.14629 -3.47015,3.69853 -5.08881,5.99111 -1.17013,1.64659 -4.47096,3.10954 -5.34485,4.54082 h 5.07399 c 2.7486,-1.90204 3.09557,-2.1448 5.70455,-4.13129 8.84457,-5.48023 10.45478,-4.52393 7.6237,-7.80025 -0.30469,-0.35252 -1.79643,-1.97804 -0.34907,-4.8786 1.44519,-2.90266 1.85562,-7.01284 2.04186,-9.4722 1.07279,-0.79163 4.52806,-5.19313 5.62412,-7.20495 1.09816,-2.02025 6.93814,-8.689 9.50051,-11.49455 2.56663,-2.79712 2.74224,-5.59424 3.9441,-8.39136 1.20612,-2.78656 4.4964,-7.09306 5.18616,-8.1359 0.68982,-1.04286 2.36137,-3.02511 2.69779,-3.51276 0.24112,-0.35887 1.68428,-3.15178 2.24502,-3.05678 3.92294,0.69242 12.88387,1.88093 13.83184,3.32699 1.0897,1.66561 2.42909,2.80133 3.78114,1.33418 1.35421,-1.47773 5.15017,-3.80832 10.7299,-3.68165 0.85692,0.0192 1.56156,-0.0401 2.16249,-0.14774 z"
       style="fill:#ffffff;fill-opacity:1;fill-rule:nonzero;stroke:none;stroke-width:2.11348"
       id="path88" />
  </g>
</svg>
