<?xml version="1.0" encoding="UTF-8" standalone="no"?>
<!-- Created with Inkscape (http://www.inkscape.org/) -->

<svg
   width="207.41119mm"
   height="271.22226mm"
   viewBox="0 0 207.41119 271.22226"
   version="1.1"
   id="svg21176"
   inkscape:version="1.2.1 (9c6d41e410, 2022-07-14)"
   sodipodi:docname="logo-cerna.svg"
   xmlns:inkscape="http://www.inkscape.org/namespaces/inkscape"
   xmlns:sodipodi="http://sodipodi.sourceforge.net/DTD/sodipodi-0.dtd"
   xmlns="http://www.w3.org/2000/svg"
   xmlns:svg="http://www.w3.org/2000/svg">
  <sodipodi:namedview
     id="namedview21178"
     pagecolor="#ffffff"
     bordercolor="#000000"
     borderopacity="0.25"
     inkscape:showpageshadow="2"
     inkscape:pageopacity="0.0"
     inkscape:pagecheckerboard="0"
     inkscape:deskcolor="#d1d1d1"
     inkscape:document-units="mm"
     showgrid="false"
     inkscape:zoom="0.2102413"
     inkscape:cx="397.16269"
     inkscape:cy="556.5034"
     inkscape:window-width="1920"
     inkscape:window-height="1217"
     inkscape:window-x="-8"
     inkscape:window-y="-8"
     inkscape:window-maximized="1"
     inkscape:current-layer="layer1" />
  <defs
     id="defs21173" />
  <g
     inkscape:label="Vrstva 1"
     inkscape:groupmode="layer"
     id="layer1"
     transform="translate(-0.11857393,-0.93337454)">
    <path
       d="M 205.87823,205.83189 H 0.13949239 V 0.93337454 H 205.87823 Z"
       style="fill:#231f20;fill-opacity:1;fill-rule:nonzero;stroke:none;stroke-width:2.08631"
       id="path936" />
    <path
       d="m 5.3345293,231.23495 c 0,0.62254 0.041482,1.19514 0.1214832,1.71562 0.083559,0.51642 0.2340769,0.96814 0.4515621,1.34711 0.2216323,0.38539 0.5203036,0.6829 0.903123,0.89737 0.3828204,0.22486 0.8634198,0.33523 1.4404361,0.33523 0.5999484,0 1.0891407,-0.11042 1.4591618,-0.33523 0.3680045,-0.21423 0.6648385,-0.51228 0.8843385,-0.89737 0.219262,-0.37891 0.369782,-0.83076 0.451561,-1.34711 0.07941,-0.52054 0.121484,-1.09308 0.121484,-1.71562 v -17.22892 h 5.021523 v 17.24145 c 0,1.56983 -0.219263,2.87113 -0.660572,3.89964 -0.440895,1.02439 -1.030652,1.83851 -1.777032,2.4402 -0.742115,0.60168 -1.588823,1.00356 -2.540007,1.20758 -0.953317,0.21011 -1.9379835,0.31634 -2.9602195,0.31634 -1.0222966,0 -2.0090362,-0.0938 -2.9602799,-0.28094 -0.9511834,-0.18118 -1.7978924,-0.56008 -2.5400058,-1.12642 -0.7442482,-0.56009 -1.3337677,-1.36581 -1.77697374,-2.40684 -0.440895,-1.03684 -0.66063179,-2.38601 -0.66063179,-4.04956 V 214.00603 H 5.3350034 Z"
       style="fill:#231f20;fill-opacity:1;fill-rule:nonzero;stroke:none;stroke-width:2.08631"
       id="path938" />
    <path
       d="m 31.280558,230.93515 h 0.06281 v -16.92912 h 4.60131 V 238.722 h -5.70094 L 24.12253,221.40976 H 24.05379 V 238.722 h -4.599237 v -24.71597 h 5.772054 z"
       style="fill:#231f20;fill-opacity:1;fill-rule:nonzero;stroke:none;stroke-width:2.08631"
       id="path940" />
    <path
       d="M 39.513148,214.00603 H 44.53473 V 238.722 h -5.021582 z"
       style="fill:#231f20;fill-opacity:1;fill-rule:nonzero;stroke:none;stroke-width:2.08631"
       id="path942" />
    <path
       d="M 62.770723,218.10347 H 57.349846 V 238.722 h -5.023597 v -20.61853 h -5.422951 v -4.09744 h 15.867425 z"
       style="fill:#231f20;fill-opacity:1;fill-rule:nonzero;stroke:none;stroke-width:2.08631"
       id="path944" />
    <path
       d="m 78.880581,218.10347 h -8.868155 v 5.80685 h 8.347614 v 4.09956 h -8.347614 v 6.61677 h 9.215182 V 238.722 H 64.990902 v -24.71597 h 13.889679 z"
       style="fill:#231f20;fill-opacity:1;fill-rule:nonzero;stroke:none;stroke-width:2.08631"
       id="path946" />
    <path
       d="m 89.149463,235.04515 c 0.880132,0 1.582544,-0.14991 2.115646,-0.45208 0.530974,-0.29982 0.953321,-0.79534 1.266868,-1.4845 0.31171,-0.69536 0.5203,-1.60525 0.623001,-2.73581 0.104333,-1.13057 0.157042,-2.53386 0.157042,-4.21613 0,-1.40747 -0.04741,-2.64002 -0.139855,-3.70189 -0.09014,-1.06187 -0.28207,-1.94254 -0.570668,-2.64627 -0.290372,-0.69955 -0.719123,-1.23261 -1.283577,-1.59067 -0.568892,-0.35825 -1.325413,-0.53707 -2.272446,-0.53707 h -2.115647 v 17.3643 z m 0.972108,-21.03912 c 1.739344,0 3.142092,0.27917 4.210365,0.84528 1.066214,0.56421 1.896155,1.37 2.489882,2.42354 0.589633,1.04935 0.990948,2.31312 1.200015,3.79349 0.206816,1.47617 0.311704,3.12309 0.311704,4.94901 0,2.1674 -0.131559,4.05794 -0.399403,5.66108 -0.267864,1.6011 -0.725413,2.92319 -1.37354,3.96422 -0.652213,1.0369 -1.521921,1.80934 -2.61106,2.31943 -1.091268,0.50816 -2.471083,0.75992 -4.141448,0.75992 h -7.900201 v -24.71597 z"
       style="fill:#231f20;fill-opacity:1;fill-rule:nonzero;stroke:none;stroke-width:2.08631"
       id="path948" />
    <path
       d="m 120.84657,219.93365 c -0.10432,-0.48337 -0.27199,-0.92655 -0.50371,-1.33252 -0.23408,-0.40842 -0.5286,-0.74123 -0.88636,-1.00563 -0.3597,-0.2644 -0.79443,-0.39779 -1.30241,-0.39779 -1.2063,0 -2.07594,0.66621 -2.60904,2.00499 -0.53334,1.33665 -0.80067,3.54991 -0.80067,6.63965 0,1.47619 0.0474,2.81491 0.13808,4.01416 0.0919,1.19927 0.26134,2.21952 0.50193,3.05853 0.24475,0.8412 0.58964,1.4887 1.04109,1.93841 0.44919,0.44795 1.0348,0.67665 1.74769,0.67665 0.30342,0 0.62929,-0.0832 0.98882,-0.24552 0.35971,-0.15817 0.69198,-0.40191 1.00558,-0.7225 0.31171,-0.32696 0.57068,-0.7329 0.77982,-1.22842 0.2068,-0.49163 0.3117,-1.07431 0.3117,-1.74057 v -2.51722 h -3.3031 v -3.68105 h 8.09884 V 238.722 h -3.68562 v -2.29022 h -0.067 c -0.60423,0.97228 -1.32754,1.66358 -2.1742,2.06955 -0.8425,0.40369 -1.85645,0.61003 -3.03969,0.61003 -1.53028,0 -2.7742,-0.26854 -3.73374,-0.8016 -0.96167,-0.52644 -1.71635,-1.34498 -2.25989,-2.45469 -0.5434,-1.10973 -0.90732,-2.47767 -1.09547,-4.10375 -0.18371,-1.62609 -0.27793,-3.51658 -0.27793,-5.66109 0,-2.07786 0.1357,-3.90384 0.40355,-5.46954 0.26727,-1.57198 0.72748,-2.88154 1.37555,-3.93508 0.65434,-1.04516 1.51149,-1.83844 2.57978,-2.37143 1.06827,-0.52881 2.40418,-0.79327 4.00342,-0.79327 2.73444,0 4.70377,0.67039 5.91214,2.03001 1.20204,1.34916 1.80626,3.28545 1.80626,5.80266 h -4.79788 c 0,-0.46448 -0.0475,-0.93487 -0.15703,-1.41993"
       style="fill:#231f20;fill-opacity:1;fill-rule:nonzero;stroke:none;stroke-width:2.08631"
       id="path950" />
    <path
       d="m 140.07144,229.39653 -2.39997,-11.10148 h -0.0687 l -2.3979,11.10148 z m 0.6585,-15.3905 6.57277,24.71597 h -5.21388 l -1.14982,-5.22591 h -6.60406 l -1.14775,5.22591 h -5.21596 l 6.57271,-24.71597 z"
       style="fill:#231f20;fill-opacity:1;fill-rule:nonzero;stroke:none;stroke-width:2.08631"
       id="path952" />
    <path
       d="m 156.83565,214.00603 3.54558,17.44546 h 0.0693 l 3.57902,-17.44546 h 7.40271 V 238.722 h -4.60136 v -19.73153 h -0.067 l -4.40689,19.73153 h -3.88218 l -4.40689,-19.73153 h -0.0693 V 238.722 h -4.59923 v -24.71597 z"
       style="fill:#231f20;fill-opacity:1;fill-rule:nonzero;stroke:none;stroke-width:2.08631"
       id="path954" />
    <path
       d="m 188.8255,218.10347 h -8.86609 v 5.80685 h 8.34342 v 4.09956 h -8.34342 v 6.61677 h 9.21104 v 4.09535 h -14.23257 v -24.71597 h 13.88762 z"
       style="fill:#231f20;fill-opacity:1;fill-rule:nonzero;stroke:none;stroke-width:2.08631"
       id="path956" />
    <path
       d="m 195.99401,231.71591 c 0,0.58073 0.0475,1.10559 0.14231,1.57614 0.092,0.47275 0.26549,0.87442 0.52266,1.19714 0.25482,0.32048 0.59996,0.57661 1.02853,0.75999 0.4326,0.18708 0.97216,0.28092 1.62437,0.28092 0.76724,0 1.45923,-0.25378 2.07803,-0.74953 0.61464,-0.49576 0.92403,-1.25965 0.92403,-2.29648 0,-0.55359 -0.0776,-1.03272 -0.22815,-1.43664 -0.15048,-0.40191 -0.40119,-0.76824 -0.74845,-1.08889 -0.34905,-0.32283 -0.80903,-0.61835 -1.37769,-0.8828 -0.56888,-0.26854 -1.27314,-0.53707 -2.10936,-0.81824 -1.11426,-0.36414 -2.08009,-0.76825 -2.89544,-1.20758 -0.8153,-0.4391 -1.49266,-0.9515 -2.04039,-1.54074 -0.54342,-0.58901 -0.94704,-1.26796 -1.20209,-2.0404 -0.25482,-0.7745 -0.38282,-1.66769 -0.38282,-2.68376 0,-2.44431 0.68357,-4.2661 2.05502,-5.46536 1.36718,-1.20133 3.25083,-1.79889 5.63824,-1.79889 1.11427,0 2.14493,0.12276 3.0836,0.36238 0.93863,0.24373 1.75398,0.63923 2.43754,1.18261 0.68363,0.54121 1.21881,1.2326 1.60353,2.07786 0.38044,0.84741 0.57068,1.85514 0.57068,3.03356 v 0.69336 h -4.79368 c 0,-1.18055 -0.21096,-2.08624 -0.62715,-2.71709 -0.41837,-0.63918 -1.11635,-0.95564 -2.09057,-0.95564 -0.55409,0 -1.02229,0.0809 -1.39232,0.24375 -0.37393,0.16231 -0.66684,0.37477 -0.89056,0.64336 -0.21926,0.26027 -0.368,0.56836 -0.44919,0.91402 -0.0835,0.34585 -0.12328,0.69956 -0.12328,1.07432 0,0.75999 0.16297,1.40329 0.48711,1.91964 0.32595,0.52055 1.02439,0.99942 2.08847,1.43457 l 3.86752,1.66356 c 0.95121,0.41432 1.72894,0.84946 2.33307,1.29712 0.6021,0.45148 1.085,0.93479 1.44668,1.45114 0.35734,0.52055 0.60835,1.09515 0.74632,1.71562 0.13806,0.62671 0.20919,1.31376 0.20919,2.07787 0,2.60674 -0.76304,4.50768 -2.28289,5.69443 -1.5219,1.18674 -3.64176,1.78431 -6.35949,1.78431 -2.8369,0 -4.86479,-0.61835 -6.08358,-1.8447 -1.21875,-1.2284 -1.83131,-2.98563 -1.83131,-5.27172 v -1.00356 h 5.02152 z"
       style="fill:#231f20;fill-opacity:1;fill-rule:nonzero;stroke:none;stroke-width:2.08631"
       id="path958" />
    <path
       d="m 5.261343,263.64413 c 0.081784,1.16384 0.2405967,2.10703 0.4829699,2.83579 0.2405958,0.72657 0.5872678,1.25545 1.0368738,1.58855 0.4474138,0.33522 1.0411409,0.50578 1.7791074,0.50578 0.7337586,0 1.329559,-0.17056 1.7769729,-0.50578 0.447414,-0.33287 0.792308,-0.86198 1.036933,-1.58855 0.240597,-0.72876 0.401192,-1.67195 0.48297,-2.83579 0.07941,-1.16592 0.121484,-2.57758 0.121484,-4.23695 0,-1.66356 -0.04148,-3.06477 -0.121484,-4.21618 -0.08178,-1.15553 -0.242373,-2.09871 -0.48297,-2.83779 -0.244744,-0.73708 -0.589637,-1.27421 -1.036933,-1.6115 -0.4474139,-0.33346 -1.0432143,-0.4999 -1.7769729,-0.4999 -0.7379665,0 -1.3316936,0.16644 -1.7791074,0.4999 -0.4491914,0.33699 -0.7965152,0.87442 -1.0368738,1.6115 -0.2423732,0.73908 -0.4011906,1.68226 -0.4829699,2.83779 -0.079414,1.15141 -0.1214833,2.55262 -0.1214833,4.21618 0,1.65937 0.041482,3.07103 0.1214833,4.23695 m -4.88143242,-9.41295 c 0.17363264,-1.57816 0.55408235,-2.93565 1.14561642,-4.06208 0.5896384,-1.13469 1.4403765,-2.0175 2.5525692,-2.65248 1.114268,-0.6371 2.6048373,-0.9515 4.4821979,-0.9515 1.8731529,0 3.3678699,0.31458 4.4779889,0.9515 1.114268,0.63498 1.965124,1.51779 2.554643,2.65248 0.58964,1.12643 0.972103,2.48392 1.147751,4.06208 0.171261,1.58235 0.258967,3.31047 0.258967,5.18013 0,1.89055 -0.08771,3.62281 -0.258967,5.19264 -0.17541,1.57403 -0.558231,2.92114 -1.147751,4.05583 -0.589637,1.12642 -1.440375,1.99671 -2.554643,2.59423 -1.110119,0.59756 -2.604836,0.90156 -4.4779889,0.90156 -1.8773606,0 -3.3679299,-0.30395 -4.4821979,-0.90156 -1.1121927,-0.59752 -1.9630499,-1.46781 -2.5525692,-2.59423 -0.59141605,-1.13469 -0.97210282,-2.4818 -1.14561642,-4.05583 -0.17540908,-1.56983 -0.26133665,-3.30209 -0.26133665,-5.19264 0,-1.86966 0.0859297,-3.59778 0.26133665,-5.18013"
       style="fill:#231f20;fill-opacity:1;fill-rule:nonzero;stroke:none;stroke-width:2.08631"
       id="path960" />
    <path
       d="m 33.826845,247.0502 v 4.09749 h -8.866081 v 5.80891 h 8.343406 v 4.0975 h -8.343406 v 10.71212 H 19.937107 V 247.0502 Z"
       style="fill:#231f20;fill-opacity:1;fill-rule:nonzero;stroke:none;stroke-width:2.08631"
       id="path962" />
    <path
       d="m 56.206363,263.97936 h 0.0646 V 247.0502 h 4.601369 v 24.71602 h -5.701 l -6.121153,-17.31225 h -0.06874 v 17.31225 H 44.382141 V 247.0502 h 5.772054 z"
       style="fill:#231f20;fill-opacity:1;fill-rule:nonzero;stroke:none;stroke-width:2.08631"
       id="path964" />
    <path
       d="m 75.004674,262.44074 -2.397841,-11.10147 h -0.0711 l -2.397841,11.10147 z m 0.660632,-15.39054 6.570641,24.71602 h -5.213881 l -1.14769,-5.22593 h -6.606198 l -1.14769,5.22593 h -5.213882 l 6.570642,-24.71602 z"
       style="fill:#231f20;fill-opacity:1;fill-rule:nonzero;stroke:none;stroke-width:2.08631"
       id="path966" />
    <path
       d="m 96.80303,251.14769 h -5.425025 v 20.61853 H 86.356478 V 251.14769 H 80.933527 V 247.0502 H 96.80303 Z"
       style="fill:#231f20;fill-opacity:1;fill-rule:nonzero;stroke:none;stroke-width:2.08631"
       id="path968" />
    <path
       d="m 99.142378,247.0502 h 5.021532 v 24.71602 h -5.021532 z"
       style="fill:#231f20;fill-opacity:1;fill-rule:nonzero;stroke:none;stroke-width:2.08631"
       id="path970" />
    <path
       d="m 112.41327,263.64413 c 0.0794,1.16384 0.24238,2.10703 0.48297,2.83579 0.24237,0.72657 0.5855,1.25545 1.03694,1.58855 0.44741,0.33522 1.039,0.50578 1.77904,0.50578 0.73589,0 1.32541,-0.17056 1.77697,-0.50578 0.44978,-0.33287 0.79444,-0.86198 1.03693,-1.58855 0.24238,-0.72876 0.4012,-1.67195 0.48298,-2.83579 0.0794,-1.16592 0.1191,-2.57758 0.1191,-4.23695 0,-1.66356 -0.0414,-3.06477 -0.1191,-4.21618 -0.0817,-1.15553 -0.2406,-2.09871 -0.48298,-2.83779 -0.24237,-0.73708 -0.58726,-1.27421 -1.03693,-1.6115 -0.45156,-0.33346 -1.04108,-0.4999 -1.77697,-0.4999 -0.74004,0 -1.33169,0.16644 -1.77904,0.4999 -0.45157,0.33699 -0.79445,0.87442 -1.03694,1.6115 -0.24059,0.73908 -0.40357,1.68226 -0.48297,2.83779 -0.0794,1.15141 -0.12148,2.55262 -0.12148,4.21618 0,1.65937 0.0414,3.07103 0.12148,4.23695 m -4.88149,-9.41295 c 0.17126,-1.57816 0.55407,-2.93565 1.14354,-4.06208 0.59141,-1.13469 1.44251,-2.0175 2.55256,-2.65248 1.1122,-0.6371 2.60698,-0.9515 4.48429,-0.9515 1.87314,0 3.36792,0.31458 4.47798,0.9515 1.11426,0.63498 1.96512,1.51779 2.5547,2.65248 0.58965,1.12643 0.97418,2.48392 1.14562,4.06208 0.17541,1.58235 0.26134,3.31047 0.26134,5.18013 0,1.89055 -0.086,3.62281 -0.26134,5.19264 -0.17127,1.57403 -0.55586,2.92114 -1.14562,4.05583 -0.58963,1.12642 -1.44044,1.99671 -2.5547,2.59423 -1.11006,0.59756 -2.60484,0.90156 -4.47798,0.90156 -1.87731,0 -3.37209,-0.30395 -4.48429,-0.90156 -1.11005,-0.59752 -1.96091,-1.46781 -2.55256,-2.59423 -0.58964,-1.13469 -0.97211,-2.4818 -1.14354,-4.05583 -0.17363,-1.56983 -0.26134,-3.30209 -0.26134,-5.19264 0,-1.86966 0.0877,-3.59778 0.26134,-5.18013"
       style="fill:#231f20;fill-opacity:1;fill-rule:nonzero;stroke:none;stroke-width:2.08631"
       id="path972" />
    <path
       d="m 138.91325,263.97936 h 0.067 V 247.0502 h 4.60132 v 24.71602 h -5.70307 l -6.11908,-17.31225 h -0.0711 v 17.31225 h -4.6013 V 247.0502 h 5.77619 z"
       style="fill:#231f20;fill-opacity:1;fill-rule:nonzero;stroke:none;stroke-width:2.08631"
       id="path974" />
    <path
       d="m 151.11379,264.76011 c 0,0.58075 0.0475,1.1056 0.14222,1.5761 0.0942,0.47274 0.26786,0.87028 0.52268,1.1972 0.25481,0.32046 0.60001,0.5766 1.02857,0.75992 0.43083,0.18709 0.97211,0.28092 1.62438,0.28092 0.76723,0 1.45922,-0.252 2.07594,-0.74954 0.61672,-0.49574 0.92612,-1.25963 0.92612,-2.29647 0,-0.5536 -0.0753,-1.0327 -0.22815,-1.43663 -0.15054,-0.40192 -0.40119,-0.7683 -0.7484,-1.08889 -0.34904,-0.32047 -0.80902,-0.61841 -1.37767,-0.8828 -0.57068,-0.26854 -1.27315,-0.53708 -2.11151,-0.81825 -1.11213,-0.36414 -2.07801,-0.76829 -2.89331,-1.20757 -0.81322,-0.4391 -1.49264,-0.9515 -2.03831,-1.54074 -0.54756,-0.58901 -0.94704,-1.26796 -1.20417,-2.0404 -0.25481,-0.77244 -0.38459,-1.66776 -0.38459,-2.68376 0,-2.44431 0.6857,-4.2661 2.05502,-5.46536 1.3714,-1.20139 3.25083,-1.7989 5.64245,-1.7989 1.11219,0 2.14071,0.12277 3.07939,0.36238 0.94075,0.24375 1.75606,0.63918 2.43968,1.18468 0.68363,0.53943 1.21881,1.23048 1.60139,2.07788 0.38281,0.84531 0.57305,1.853 0.57305,3.02937 v 0.69541 h -4.79576 c 0,-1.18048 -0.20681,-2.0862 -0.62506,-2.71704 -0.42016,-0.63923 -1.11641,-0.9557 -2.09059,-0.9557 -0.55586,0 -1.02229,0.0814 -1.39231,0.24376 -0.37216,0.1623 -0.66898,0.37477 -0.88849,0.6433 -0.22163,0.26026 -0.36979,0.56835 -0.45156,0.91402 -0.0836,0.34585 -0.12563,0.69962 -0.12563,1.07438 0,0.75993 0.16534,1.40329 0.48889,1.91963 0.32594,0.52055 1.0223,0.99938 2.09058,1.43452 l 3.86549,1.66355 c 0.95117,0.41432 1.72884,0.84952 2.33093,1.29712 0.60629,0.45208 1.08713,0.93485 1.44878,1.45121 0.35734,0.52055 0.60623,1.09515 0.74634,1.71562 0.13979,0.62253 0.20918,1.31375 0.20918,2.07993 0,2.60468 -0.76096,4.50555 -2.28294,5.69236 -1.51978,1.18674 -3.64385,1.78432 -6.36157,1.78432 -2.83269,0 -4.86265,-0.61841 -6.08145,-1.8447 -1.22088,-1.22841 -1.83132,-2.98569 -1.83132,-5.27179 v -1.00356 h 5.02152 z"
       style="fill:#231f20;fill-opacity:1;fill-rule:nonzero;stroke:none;stroke-width:2.08631"
       id="path976" />
    <path
       d="m 15.419413,166.9767 c -0.677343,-0.47274 -1.484288,-0.70788 -2.416686,-0.70788 -0.798589,0 -1.478006,0.14814 -2.044591,0.44795 -0.566527,0.29568 -1.0327266,0.69536 -1.4006725,1.19714 -0.3656345,0.50167 -0.6376383,1.07645 -0.8111519,1.71981 -0.17541,0.64543 -0.2613376,1.31375 -0.2613376,2.0071 0,0.75574 0.08593,1.47199 0.2613376,2.14657 0.1736317,0.67665 0.4450432,1.2659 0.8111519,1.76768 0.3680051,0.50166 0.8362195,0.89945 1.4090265,1.19925 0.573047,0.29746 1.258567,0.4456 2.055023,0.4456 0.583119,0 1.103838,-0.0956 1.557474,-0.2892 0.455711,-0.19181 0.846708,-0.4562 1.177025,-0.79952 0.3283,-0.33936 0.587266,-0.74541 0.773521,-1.21804 0.187855,-0.4686 0.298672,-0.97646 0.336596,-1.52404 h 1.774901 c -0.175412,1.67395 -0.754677,2.97526 -1.73727,3.90387 -0.982532,0.92652 -2.326787,1.39076 -4.032708,1.39076 -1.032726,0 -1.933717,-0.17704 -2.707239,-0.5288 -0.7714476,-0.35412 -1.4132351,-0.83907 -1.9233457,-1.45954 -0.5120074,-0.61834 -0.8968424,-1.34709 -1.1518983,-2.19029 -0.2571885,-0.84326 -0.3845979,-1.74684 -0.3845979,-2.71292 0,-0.96401 0.1380758,-1.87178 0.4118577,-2.72123 0.2761518,-0.84739 0.6773425,-1.58655 1.2083132,-2.21946 0.5291934,-0.63085 1.1895283,-1.13056 1.979762,-1.49282 0.790233,-0.36651 1.695491,-0.54946 2.717727,-0.54946 0.696188,0 1.35682,0.0938 1.977688,0.27679 0.623001,0.18709 1.17489,0.45799 1.662009,0.81411 0.48534,0.35825 0.89056,0.80785 1.21252,1.34709 0.324153,0.53944 0.53512,1.15966 0.635564,1.86759 h -1.774899 c -0.198521,-0.94111 -0.637638,-1.64897 -1.31498,-2.11746"
       style="fill:#e8e8e8;fill-opacity:1;fill-rule:nonzero;stroke:none;stroke-width:2.08631"
       id="path978" />
    <path
       d="M 27.920985,166.57695 H 20.26535 v -1.48036 h 9.746211 v 1.48036 l -8.27028,10.3124 h 8.493987 v 1.48032 H 19.631919 v -1.48032 z"
       style="fill:#e8e8e8;fill-opacity:1;fill-rule:nonzero;stroke:none;stroke-width:2.08631"
       id="path980" />
    <path
       d="m 41.317322,165.09659 v 1.48036 h -7.429854 v 4.23071 h 6.926025 v 1.48036 h -6.926025 v 4.60133 h 7.484196 v 1.48032 h -9.265377 v -13.27308 z"
       style="fill:#e8e8e8;fill-opacity:1;fill-rule:nonzero;stroke:none;stroke-width:2.08631"
       id="path982" />
    <path
       d="m 51.510947,166.9767 c -0.677341,-0.47274 -1.484344,-0.70788 -2.416685,-0.70788 -0.796515,0 -1.478066,0.14814 -2.044592,0.44795 -0.566526,0.29568 -1.032726,0.69536 -1.400671,1.19714 -0.365636,0.50167 -0.637641,1.07645 -0.811154,1.71981 -0.175408,0.64543 -0.261336,1.31375 -0.261336,2.0071 0,0.75574 0.08593,1.47199 0.261336,2.14657 0.173633,0.67665 0.445045,1.2659 0.811154,1.76768 0.368004,0.50166 0.836219,0.89945 1.409027,1.19925 0.573045,0.29746 1.256433,0.4456 2.055022,0.4456 0.585488,0 1.103837,-0.0956 1.557474,-0.2892 0.455709,-0.19181 0.846647,-0.4562 1.176964,-0.79952 0.330078,-0.33936 0.587268,-0.74541 0.773522,-1.21804 0.187855,-0.4686 0.301042,-0.97646 0.336599,-1.52404 h 1.774898 c -0.175411,1.67395 -0.754737,2.97526 -1.73727,3.90387 -0.982591,0.92652 -2.326788,1.39076 -4.032709,1.39076 -1.032725,0 -1.933775,-0.17704 -2.705164,-0.5288 -0.773522,-0.35412 -1.415308,-0.83907 -1.92542,-1.45954 -0.512007,-0.61834 -0.896842,-1.34709 -1.151897,-2.19029 -0.257189,-0.84326 -0.384599,-1.74684 -0.384599,-2.71292 0,-0.96401 0.138077,-1.87178 0.413636,-2.72123 0.273781,-0.84739 0.675209,-1.58655 1.20624,-2.21946 0.530969,-0.63085 1.191601,-1.13056 1.979759,-1.49282 0.790236,-0.36651 1.697508,-0.54946 2.71773,-0.54946 0.696187,0 1.35676,0.0938 1.979761,0.27679 0.620928,0.18709 1.174891,0.45799 1.659934,0.81411 0.484749,0.35825 0.89056,0.80785 1.214595,1.34709 0.321783,0.53944 0.533341,1.15966 0.633431,1.86759 h -1.772766 c -0.200891,-0.94111 -0.637638,-1.64897 -1.317055,-2.11746"
       style="fill:#e8e8e8;fill-opacity:1;fill-rule:nonzero;stroke:none;stroke-width:2.08631"
       id="path984" />
    <path
       d="m 58.829985,165.09659 v 5.71107 h 7.005492 v -5.71107 h 1.781182 v 13.27308 h -1.781182 v -6.08165 h -7.005492 v 6.08165 h -1.781181 v -13.27308 z"
       style="fill:#e8e8e8;fill-opacity:1;fill-rule:nonzero;stroke:none;stroke-width:2.08631"
       id="path986" />
    <path
       d="m 13.999897,189.70851 c 0.372154,-0.0625 0.698261,-0.18295 0.978384,-0.36238 0.27793,-0.18118 0.501934,-0.42256 0.668988,-0.72663 0.169484,-0.30395 0.253041,-0.69961 0.253041,-1.18262 0,-0.66833 -0.186077,-1.21589 -0.560009,-1.63859 -0.372154,-0.4208 -0.974236,-0.63291 -1.806247,-0.63291 H 9.1375465 v 4.63673 h 3.6877555 c 0.409489,0 0.802797,-0.0296 1.174891,-0.0938 m -0.369783,-6.0234 c 1.268996,0 2.262017,0.31043 2.974916,0.9286 0.717048,0.62046 1.074505,1.46992 1.074505,2.54636 0,0.80578 -0.183706,1.51159 -0.551712,2.11954 -0.365635,0.60589 -0.953317,1.0202 -1.762336,1.243 v 0.0354 c 0.384597,0.0749 0.700336,0.20006 0.942829,0.3724 0.242374,0.1747 0.43497,0.38126 0.57897,0.62254 0.142229,0.24373 0.248893,0.51228 0.317635,0.80785 0.06697,0.2998 0.121487,0.60795 0.157041,0.93065 0.02371,0.32284 0.04148,0.65169 0.05925,0.98691 0.01179,0.33523 0.04148,0.66207 0.09422,0.98691 0.04741,0.32047 0.121487,0.62666 0.215115,0.91816 0.09184,0.29331 0.232298,0.54947 0.420153,0.77244 h -1.979762 c -0.125639,-0.13516 -0.209187,-0.32284 -0.25304,-0.55773 -0.04148,-0.23549 -0.0711,-0.4999 -0.08357,-0.7912 -0.01179,-0.29155 -0.02371,-0.60377 -0.03557,-0.939 -0.01179,-0.33698 -0.04741,-0.66419 -0.110811,-0.98691 -0.0474,-0.32283 -0.112594,-0.63085 -0.187855,-0.92022 -0.07289,-0.29331 -0.192003,-0.54769 -0.35319,-0.76624 -0.161187,-0.21423 -0.372153,-0.38952 -0.633432,-0.52055 -0.261337,-0.12924 -0.608364,-0.19357 -1.043213,-0.19357 H 9.1430962 v 5.67565 H 7.3640577 v -13.2731 z"
       style="fill:#e8e8e8;fill-opacity:1;fill-rule:nonzero;stroke:none;stroke-width:2.08631"
       id="path988" />
    <path
       d="m 29.574637,183.68513 v 1.48036 h -7.429854 v 4.22863 h 6.926025 v 1.48037 h -6.926025 v 4.6034 h 7.486269 v 1.48029 h -9.267451 v -13.27305 z"
       style="fill:#e8e8e8;fill-opacity:1;fill-rule:nonzero;stroke:none;stroke-width:2.08631"
       id="path990" />
    <path
       d="m 37.052609,190.0458 c 1.0076,0.0118 1.745566,-0.19181 2.211765,-0.61421 0.466378,-0.42256 0.700337,-1.03058 0.700337,-1.82597 0,-0.79534 -0.234079,-1.3991 -0.700337,-1.81553 -0.466377,-0.41608 -1.204165,-0.6246 -2.211765,-0.6246 h -3.472463 v 4.88031 z m 0.597874,-6.36067 c 1.346331,0 2.366494,0.34349 3.058474,1.03064 0.689907,0.6871 1.036934,1.65105 1.036934,2.88985 0,1.23885 -0.347264,2.20494 -1.036934,2.9003 -0.69198,0.69335 -1.710069,1.03271 -3.0564,1.02026 h -4.072411 v 5.432 h -1.78118 v -13.27305 z"
       style="fill:#e8e8e8;fill-opacity:1;fill-rule:nonzero;stroke:none;stroke-width:2.08631"
       id="path992" />
    <path
       d="m 53.099771,195.97754 c -0.909405,0.84952 -2.205542,1.27421 -3.886396,1.27421 -1.720499,0 -3.064755,-0.40781 -4.030577,-1.21797 -0.965879,-0.81197 -1.446657,-2.10289 -1.446657,-3.87469 v -8.47396 h 1.779048 v 8.47602 c 0,1.19094 0.317634,2.09245 0.953317,2.70666 0.633431,0.61214 1.549059,0.92027 2.744869,0.92027 1.131038,0 1.994398,-0.30806 2.583978,-0.92027 0.591415,-0.61421 0.888486,-1.51572 0.888486,-2.70666 v -8.47602 h 1.779046 v 8.47396 c 0,1.69685 -0.453338,2.97106 -1.365114,3.81845"
       style="fill:#e8e8e8;fill-opacity:1;fill-rule:nonzero;stroke:none;stroke-width:2.08631"
       id="path994" />
    <path
       d="m 63.684276,195.47789 c 0.781878,0 1.394391,-0.21012 1.833449,-0.63298 0.440894,-0.42257 0.660631,-1.00562 0.660631,-1.75096 0,-0.43497 -0.07941,-0.79534 -0.240596,-1.08271 -0.162966,-0.28504 -0.376301,-0.51227 -0.641846,-0.67871 -0.267263,-0.16879 -0.574822,-0.28742 -0.921909,-0.35588 -0.349042,-0.0668 -0.708691,-0.10212 -1.080846,-0.10212 h -4.03893 v 4.6034 z m -0.890561,-6.08377 c 1.005526,0 1.726781,-0.17706 2.167912,-0.53117 0.440896,-0.35175 0.662707,-0.8828 0.662707,-1.59274 0,-0.47273 -0.07526,-0.84325 -0.224005,-1.11598 -0.14814,-0.27503 -0.35556,-0.48691 -0.614584,-0.63504 -0.261337,-0.14755 -0.562379,-0.24374 -0.903125,-0.28919 -0.340744,-0.0413 -0.704543,-0.0644 -1.0892,-0.0644 h -3.539311 v 4.22863 z m -0.48534,-5.70899 c 0.286227,0 0.593727,0.005 0.924043,0.0118 0.328302,0.007 0.656424,0.0237 0.978384,0.0531 0.324154,0.0296 0.62715,0.0791 0.907332,0.14165 0.27793,0.0602 0.518527,0.15403 0.717047,0.27916 0.434968,0.26027 0.806945,0.61627 1.112194,1.07644 0.303411,0.46035 0.45571,1.02226 0.45571,1.69271 0,0.70581 -0.171263,1.31583 -0.514378,1.83012 -0.343117,0.51641 -0.83207,0.89525 -1.467577,1.14301 v 0.0354 c 0.821583,0.17293 1.448732,0.54532 1.883582,1.11598 0.436748,0.57071 0.65435,1.26384 0.65435,2.08206 0,0.48277 -0.0877,0.95357 -0.261336,1.41374 -0.173632,0.45798 -0.432599,0.86403 -0.773463,1.21797 -0.343117,0.35176 -0.765165,0.63504 -1.268996,0.85364 -0.50371,0.21659 -1.084993,0.3246 -1.745624,0.3246 h -6.436832 v -13.27306 z"
       style="fill:#e8e8e8;fill-opacity:1;fill-rule:nonzero;stroke:none;stroke-width:2.08631"
       id="path996" />
    <path
       d="m 72.188693,183.68513 v 11.79276 h 7.057759 v 1.48029 h -8.836807 v -13.27305 z"
       style="fill:#e8e8e8;fill-opacity:1;fill-rule:nonzero;stroke:none;stroke-width:2.08631"
       id="path998" />
    <path
       d="m 82.783689,196.95818 h -1.781182 v -13.27305 h 1.781182 z"
       style="fill:#e8e8e8;fill-opacity:1;fill-rule:nonzero;stroke:none;stroke-width:2.08631"
       id="path1000" />
    <path
       d="m 93.972405,185.56317 c -0.677337,-0.47039 -1.484343,-0.70581 -2.416745,-0.70581 -0.796447,0 -1.478004,0.14754 -2.044526,0.44558 -0.566532,0.29746 -1.032723,0.69543 -1.398602,1.19927 -0.368,0.50165 -0.639711,1.07438 -0.813221,1.7198 -0.175408,0.64337 -0.261338,1.31376 -0.261338,2.00705 0,0.75579 0.08595,1.47205 0.261338,2.14662 0.173625,0.67666 0.445044,1.26377 0.813221,1.76768 0.365638,0.50165 0.834149,0.89944 1.406956,1.19925 0.573049,0.29569 1.258503,0.4456 2.055023,0.4456 0.585487,0 1.103832,-0.0956 1.55747,-0.2892 0.455715,-0.19181 0.846649,-0.45798 1.176969,-0.79951 0.330079,-0.33936 0.587262,-0.74542 0.775592,-1.21804 0.186082,-0.46861 0.298675,-0.97647 0.33482,-1.52403 h 1.774907 c -0.175412,1.67395 -0.754738,2.97524 -1.737279,3.90384 -0.982583,0.92648 -2.326784,1.39079 -4.030632,1.39079 -1.034799,0 -1.935849,-0.17706 -2.707233,-0.52882 -0.773523,-0.35411 -1.415374,-0.83908 -1.925428,-1.45953 -0.512006,-0.61833 -0.896839,-1.34917 -1.151894,-2.19031 -0.257187,-0.84325 -0.384597,-1.74682 -0.384597,-2.7129 0,-0.96608 0.138077,-1.87178 0.414227,-2.72124 0.273781,-0.84946 0.675206,-1.58653 1.20624,-2.21946 0.530973,-0.63297 1.191601,-1.13056 1.981834,-1.49494 0.788156,-0.36414 1.695429,-0.54769 2.715651,-0.54769 0.696126,0 1.356766,0.0938 1.977688,0.2768 0.623,0.18532 1.176968,0.45621 1.66201,0.8141 0.484749,0.35824 0.890565,0.80785 1.214598,1.3471 0.321776,0.53707 0.533343,1.15966 0.633431,1.86758 h -1.772762 c -0.200892,-0.94111 -0.639721,-1.64897 -1.317059,-2.11954"
       style="fill:#e8e8e8;fill-opacity:1;fill-rule:nonzero;stroke:none;stroke-width:2.08631"
       id="path1002" />
    <path
       d="m 205.87823,136.13742 c -2.72613,-0.23135 -8.05913,-0.0237 -13.28557,0.0237 -4.53649,0.0354 -11.71761,-0.72457 -13.77887,-2.61086 -0.49541,-0.36651 1.14977,-2.47974 1.04316,-2.88366 -0.23823,-0.85364 -10.99008,-8.24698 -16.16212,-11.43251 -3.37836,-2.04666 -10.48211,-4.93863 -15.15661,-7.40378 -4.67242,-2.46309 -11.37479,-6.11705 -13.64095,-7.98676 -2.26825,-1.86966 -2.56929,-1.95087 -4.8898,-2.4589 -2.32057,-0.50402 -2.08642,-2.123672 -4.29197,-3.570689 -2.20761,-1.434566 -2.00483,-5.282173 -1.65153,-7.503696 0.35142,-2.219457 3.35117,-4.794973 5.80763,-6.849946 2.45431,-2.059161 7.27719,-3.264678 10.0681,-5.14891 2.79299,-1.880098 8.78875,-6.152463 13.7183,-9.227631 4.92955,-3.071038 12.41796,-7.249681 14.96216,-8.274067 2.55051,-1.018132 6.98043,0.35175 8.17204,0.524675 1.18746,0.172925 4.8083,1.678137 6.30516,2.706657 1.49264,1.024387 2.00274,-0.291552 1.30034,-0.805783 -0.70455,-0.514052 -3.25713,-1.784312 -4.00344,-2.548427 -0.74637,-0.772437 -0.56415,-1.482373 1.15605,-1.220034 5.7407,1.207582 6.95323,1.143014 6.89468,0.195942 -0.0415,-0.601697 -1.94001,-1.193004 -4.28984,-1.626083 -2.36021,-0.424935 -3.94904,-0.362376 -3.97416,-1.646918 -0.0126,-1.282535 1.96932,-1.530295 3.8989,-1.619826 7.35672,-0.41018 6.94071,-2.032073 6.40547,-2.117415 -0.53926,-0.08557 -3.39922,-0.0059 -4.23963,0.243747 -0.83622,0.257912 -3.92397,0.166434 -4.27729,-0.434968 -0.1357,-0.934856 1.33377,-1.105596 4.39645,-2.896106 3.05848,-1.792693 -0.68569,-1.886355 -2.6174,-1.09102 -1.93791,0.795337 -8.72391,2.379811 -10.02841,1.980019 -1.30034,-0.395425 0.59142,-4.788718 -0.75474,-5.594442 -1.3421,-0.795335 -0.98044,2.000853 -2.68217,4.794975 -1.69542,2.789932 -8.58388,7.578649 -13.0995,8.769588 -4.52397,1.197136 -12.22139,4.782462 -14.61514,6.385588 -2.40411,1.603183 -11.28691,4.005893 -13.39212,4.811617 -2.10309,0.799526 -8.0048,3.216814 -11.04235,3.624869 -3.02926,0.407819 -2.93724,-3.583202 -0.57897,-6.389778 2.35813,-2.794122 15.62907,-1.86139 14.58794,-3.452062 -1.04529,-1.598994 -8.34135,-4.149545 -12.85903,-5.263405 -3.76302,-0.939048 -9.87374,-6.529298 -16.80191,1.359555 -3.376224,3.837218 3.58744,9.392116 4.52398,10.589311 0.94289,1.19507 2.51494,4.780397 1.29406,5.990044 -1.21667,1.201325 -5.60268,2.962739 -8.527414,2.027941 -3.635487,-1.159717 -4.707915,-2.621315 -8.322538,-1.451211 -0.554083,0.182958 -1.350479,1.020198 -2.491949,1.186749 -4.751832,0.724572 -13.193552,1.415798 -14.874346,0.780817 -2.080148,-0.797461 -5.799253,-1.180551 -10.30859,-0.368277 -4.503058,0.812038 -16.032524,1.998787 -18.365596,0.208337 -3.635488,-2.808701 -6.56436,-3.739366 -8.987326,-4.946949 -3.551873,-1.765544 -2.87453,0.814105 -0.273782,2.758712 1.613949,1.205516 -0.284448,3.264679 -3.353232,4.332739 -1.730988,0.603821 -3.284314,0.776629 -3.284314,0.776629 -3.28218,-0.08557 -4.319113,1.894676 -2.851537,2.067484 1.469711,0.170564 3.370004,-0.172926 4.839653,-0.172926 1.467578,0 1.383961,0.172926 0,1.115985 -1.383899,0.947309 -4.994321,3.306286 -4.559471,4.168254 0.428451,0.859844 2.830618,-0.555956 4.473782,-1.245058 1.643164,-0.687096 1.630662,-0.824491 3.027125,-1.286726 1.553325,-0.514053 2.157482,0.426706 -0.60623,3.010662 -3.499606,3.262554 -2.34356,4.936501 1.641088,1.721812 3.196492,-2.581715 3.888412,-1.549005 3.286329,-0.603762 -2.855685,3.014794 -2.02154,4.543023 -0.72333,3.595656 1.300346,-0.943119 2.801404,-2.652478 4.011791,-4.026669 1.21258,-1.374132 3.119156,-3.272941 5.115628,-3.874695 2.000682,-0.603762 14.659052,0.734959 17.581643,0.984844 2.924723,0.239615 13.812403,0.555957 16.695289,0.543562 2.889107,-0.01771 7.768526,1.692716 11.993532,2.86701 5.525355,1.488629 5.188815,1.723937 8.562975,3.758075 3.38463,2.032074 3.89055,6.260694 6.87376,10.006324 4.23341,2.87946 6.79434,4.14535 8.51904,7.3892 2.84947,7.00398 5.724,18.89248 9.0396,31.84076 3.31359,12.95661 3.89054,30.80805 3.91567,37.72877 0.0237,6.91451 6.3051,2.95235 9.52879,3.02943 0.27793,5.10931 -1.61809,10.31027 -2.52958,11.44502 -0.9094,1.13051 -3.42854,3.64771 -5.0278,5.90677 -1.1561,1.62396 -4.41736,3.06684 -5.28079,4.47846 h 5.01317 c 2.71566,-1.87591 3.05848,-2.11535 5.63616,-4.07454 8.73857,-5.40504 10.32945,-4.46186 7.53232,-7.69113 -0.30105,-0.34763 -1.77489,-1.95087 -0.3449,-4.81369 1.42788,-2.86282 1.83339,-6.91658 2.0174,-9.34007 1.05993,-0.78075 4.47378,-5.12387 5.5567,-7.10809 1.085,-1.99253 6.85498,-8.56975 9.38662,-11.33464 2.53586,-2.76085 2.70937,-5.5175 3.89683,-8.27828 1.19166,-2.74619 4.4425,-6.99566 5.12399,-8.02417 0.68154,-1.02859 2.33307,-2.97945 2.66546,-3.46459 0.23821,-0.35409 1.66407,-3.10637 2.21809,-3.01272 3.87592,0.68297 12.72944,1.85307 13.66604,3.28133 1.07663,1.64066 2.39996,2.76083 3.73582,1.31375 1.33797,-1.45534 5.08843,-3.75601 10.60127,-3.63106 0.84665,0.0177 1.54284,-0.0413 2.13657,-0.14341 z"
       style="fill:#ffffff;fill-opacity:1;fill-rule:nonzero;stroke:none;stroke-width:2.08631"
       id="path1004" />
  </g>
</svg>
