<?xml version="1.0" encoding="UTF-8" standalone="no"?>
<!-- Created with Inkscape (http://www.inkscape.org/) -->

<svg
   version="1.1"
   id="svg2"
   width="960"
   height="685"
   viewBox="0 0 960 685"
   sodipodi:docname="posta.svg"
   inkscape:version="1.2.1 (9c6d41e410, 2022-07-14)"
   xmlns:inkscape="http://www.inkscape.org/namespaces/inkscape"
   xmlns:sodipodi="http://sodipodi.sourceforge.net/DTD/sodipodi-0.dtd"
   xmlns="http://www.w3.org/2000/svg"
   xmlns:svg="http://www.w3.org/2000/svg">
  <defs
     id="defs6" />
  <sodipodi:namedview
     id="namedview4"
     pagecolor="#ffffff"
     bordercolor="#000000"
     borderopacity="0.25"
     inkscape:showpageshadow="2"
     inkscape:pageopacity="0.0"
     inkscape:pagecheckerboard="0"
     inkscape:deskcolor="#d1d1d1"
     showgrid="false"
     inkscape:zoom="0.34452555"
     inkscape:cx="480.37076"
     inkscape:cy="342.5"
     inkscape:window-width="1920"
     inkscape:window-height="1217"
     inkscape:window-x="-8"
     inkscape:window-y="-8"
     inkscape:window-maximized="1"
     inkscape:current-layer="g8" />
  <g
     inkscape:groupmode="layer"
     inkscape:label="Image"
     id="g8">
    <path
       style="fill:#fdc300;stroke:#fdc300;stroke-width:2.90254"
       d="M 458.60169,679.19492 81.271186,677.74365 63.137622,669.36856 C 41.546518,659.39659 24.361974,641.86285 13.527029,618.74991 L 5.8050848,602.27754 V 339.59746 76.917375 l 7.5498402,-16.09643 c 13.290186,-28.33497 31.577922,-45.03284 62.111176,-56.7114496 13.982989,-5.34833 28.391469,-5.58096 394.745759,-6.37333 392.5879,-0.8491 407.26637,-0.48023 432.94827,10.88009 17.78135,7.8655296 40.24146,30.1033096 49.55836,49.0677496 l 8.02303,16.33083 V 333.79238 c 0,291.15237 0.95616,277.26443 -21.08256,306.21822 -11.84904,15.56688 -35.55849,31.57095 -54.38354,36.70929 -15.48535,4.22677 2.16379,4.1244 -426.67373,2.47503 z m 352.6589,-48.6038 c 0,-3.33705 -224.52291,-227.13773 -227.87073,-227.13773 -1.6234,0 -23.16525,20.24524 -47.87079,44.98941 -28.38968,28.43409 -47.08078,44.98941 -50.79339,44.98941 -3.72034,0 -22.8777,-17.02841 -52.24687,-46.44068 -25.50496,-25.54238 -47.68796,-46.44068 -49.29559,-46.44068 -3.34741,0 -230.79975,226.67672 -230.79975,230.0127 0,1.20487 148.24735,2.19069 329.43856,2.19069 181.19121,0 329.43856,-0.9734 329.43856,-2.16312 z M 216.95308,499.97503 c 71.4454,-71.43218 129.90073,-131.50656 129.90073,-133.49866 0,-3.90865 -284.169727,-289.354665 -286.119679,-287.404715 -0.64659,0.6466 -1.214795,118.972615 -1.262672,262.946725 -0.0759,228.24334 0.476002,262.8599 4.309039,270.27218 4.435984,8.57826 14.820605,17.56114 20.301467,17.56114 1.63371,0 61.425705,-58.44449 132.871115,-129.87667 z M 896.2834,621.28345 c 5.55959,-4.88138 11.29449,-13.69422 13.32784,-20.48098 2.7108,-9.0478 3.54023,-73.40666 3.44894,-267.61182 -0.0662,-140.63449 -0.46705,-256.013855 -0.89102,-256.398585 -2.00699,-1.82123 -293.10729,288.478415 -292.13662,291.333115 2.54611,7.48784 256.29675,261.72652 261.22411,261.72652 2.89743,0 9.65946,-3.85571 15.02675,-8.56825 z M 679.82395,240.2375 C 782.44566,137.69757 866.4089,52.798205 866.4089,51.572245 c 0,-1.22596 -171.75795,-2.22902 -381.68433,-2.22902 -209.92637,0 -381.68432,1.03457 -381.68432,2.29904 0,3.24862 369.13301,370.883385 374.42797,372.908225 2.3946,0.91573 6.92262,1.76806 10.0623,1.89409 3.83458,0.15383 66.95837,-60.97191 192.29343,-186.20708 z"
       id="path808" />
  </g>
</svg>
